<svg preserveAspectRatio="none" width="100%" height="100%" overflow="visible" style="display: block;" viewBox="0 0 46 46" fill="none" xmlns="http://www.w3.org/2000/svg">
<g id="svg2" clip-path="url(#clip0_0_69)">
<path id="Vector" d="M46 0V46H0V0H46ZM16.468 18.5834C16.4551 17.9879 15.4799 18.2387 15.2821 18.5466C14.7218 19.4177 16.1092 19.65 16.1055 20.0105C16.1018 20.4695 15.3106 20.2022 15.2729 20.24V20.6069C15.8433 20.5931 16.6032 20.7876 16.6575 20.0077C16.7228 19.0665 15.4643 19.4491 15.8203 18.624L16.468 18.5825V18.5834ZM6.808 18.3078H5.152V18.6756H5.704V20.6078H6.256V18.6756H6.808V18.3078ZM7.452 18.3078V20.6078H7.91292L7.912 19.6869H8.59556L8.648 20.6078H9.20092V18.3069H8.648L8.59556 19.2287H7.912L7.91292 18.3069H7.452V18.3078ZM11.316 18.3078H10.028V20.6078H11.408V20.24H10.4871V19.6869L11.316 19.6408V19.32L10.5276 19.2333L10.4871 18.6747H11.316V18.3069V18.3078ZM14.72 20.6078L14.0318 18.3991C13.9214 18.2673 13.4725 18.2608 13.3363 18.3511C13.1864 18.4507 12.7586 20.2916 12.6049 20.6078C13.3069 20.6908 13.0226 20.5709 13.3069 20.1607L14.087 20.2022L14.1781 20.5986L14.72 20.6078ZM17.756 18.3078H17.204V20.6078H17.756V18.3078ZM19.768 18.3198L19.0532 18.317L18.4 20.6069L18.848 20.5958L18.963 20.158C18.9943 20.1312 19.0449 20.1487 19.0854 20.1423C19.2105 20.1238 19.6199 20.1229 19.723 20.1589C19.9143 20.2262 19.8591 20.7986 20.424 20.6069L19.768 18.3189V18.3198ZM21.068 18.3078V20.6078H21.5289L21.4829 18.8591C21.7157 18.86 21.6743 19.0361 21.7129 19.1808C21.8012 19.5117 21.9613 20.5424 22.3082 20.6097C22.4876 20.6447 22.7185 20.5875 22.908 20.6087V18.3087H22.54V19.9644C22.3781 19.9957 22.3551 19.9238 22.2842 19.8058C22.1343 19.556 21.9484 18.4221 21.7893 18.3235L21.068 18.3078ZM18.5849 21.5287C17.9501 21.3997 17.3797 21.278 16.7219 21.3674C14.996 21.6025 14.3732 23.5715 15.8295 24.604C16.1984 24.8658 17.2086 25.1571 17.3475 25.5701C17.7772 26.8441 15.8525 26.5712 15.18 26.22L15.0972 27.3142C16.7826 27.8424 19.1884 27.5843 18.8508 25.2622C18.6686 24.0122 16.3824 23.8057 16.3815 22.9539C16.5922 22.0413 17.8259 22.3363 18.4902 22.5391L18.5831 21.5278L18.5849 21.5287ZM35.132 21.5407C34.3335 21.2918 33.2111 21.1803 32.4824 21.6725C31.3674 22.4257 31.3711 23.755 32.4466 24.5487C32.9691 24.934 34.0648 25.1792 34.0446 25.8964C34.0188 26.8164 32.4033 26.5058 31.8338 26.2209L31.7529 27.3124C33.3684 27.8729 35.8772 27.5392 35.4899 25.276C35.2645 23.9615 33.1669 23.8739 33.1117 23.047C33.0427 22.0118 34.5414 22.3612 35.144 22.54L35.133 21.5407H35.132ZM39.4689 21.5287C37.9012 21.0826 35.6721 21.3084 35.8763 23.4194C36.0134 24.8391 37.8727 24.8077 38.2251 25.5784C38.7541 26.7381 36.6905 26.6275 36.11 26.2237C35.9242 26.2384 35.9683 27.1197 35.8828 27.3207C37.731 27.7807 40.0062 27.6959 39.6446 25.17C39.4643 23.9089 37.2057 23.8481 37.2618 22.9604C37.318 22.0726 38.8084 22.3639 39.376 22.5391L39.4689 21.5278V21.5287ZM7.59 21.4356C6.83376 21.3462 5.92572 21.5011 5.152 21.4356V27.4156H7.958C8.00032 27.4156 8.648 27.1455 8.7354 27.0893C9.33248 26.7095 9.57628 25.8927 9.31408 25.2318C9.07672 24.6344 8.20548 24.4971 8.18708 24.4252C8.13924 24.2426 8.99668 24.0232 9.0574 23.7319C9.7566 22.4377 8.87432 21.5887 7.59 21.4366V21.4356ZM11.224 21.4356H9.844V26.0817C9.844 26.114 10.0446 26.6136 10.0804 26.6735C10.8026 27.8692 13.1266 27.8978 13.9316 26.7657C13.9969 26.6735 14.26 26.1416 14.26 26.0817V21.4356H12.88V25.8974C12.88 26.7418 11.224 26.7418 11.224 25.8974V21.4356ZM20.884 21.4356H19.504V22.3556H20.884V21.4356ZM23.506 21.4356H21.712V27.4156H22.908V23.5974C22.908 23.5116 22.6044 22.8101 23.0478 22.9972L24.656 27.4147H26.588V21.4347H25.392V25.9425L25.1859 25.8264L23.506 21.4347V21.4356ZM30.82 21.4356H27.324V27.4156H31.004V26.4034H28.704V25.0695L28.842 24.9313H30.728V24.0113H28.934C28.9036 24.0113 28.7942 23.8896 28.704 23.9191V22.5852L28.842 22.4469H30.82V21.4347V21.4356ZM20.884 23.1844H19.596V27.4166H20.884V23.1844Z" fill="var(--fill-0, #792323)"/>
<path id="Vector_2" d="M6.44043 24.9794C6.53335 24.6798 7.76155 24.9167 7.91703 25.1822C8.48835 26.1557 7.21875 26.8766 6.44043 26.3594V24.9794Z" fill="var(--fill-0, #792323)"/>
<path id="Vector_3" d="M6.44043 22.4953C7.24819 21.9818 8.45891 22.7626 7.80939 23.6808C7.61343 23.9574 6.68975 24.1703 6.44043 23.8753V22.4953Z" fill="var(--fill-0, #792323)"/>
<path id="Vector_4" d="M13.3398 19.7783L13.66 18.6758L13.9618 19.6446C13.9277 19.8391 13.4926 19.7755 13.3398 19.7783Z" fill="var(--fill-0, #792323)"/>
<path id="Vector_5" d="M19.5027 18.6742L19.6876 19.7777C19.5284 19.7758 19.0325 19.8524 19.0804 19.5878C19.1117 19.4163 19.2193 19.0347 19.2763 18.8568C19.3279 18.6973 19.2855 18.6383 19.5027 18.6742Z" fill="var(--fill-0, #792323)"/>
</g>
<defs>
<clipPath id="clip0_0_69">
<rect width="46" height="46" fill="white"/>
</clipPath>
</defs>
</svg>
