<svg preserveAspectRatio="none" width="100%" height="100%" overflow="visible" style="display: block;" viewBox="0 0 28 28" fill="none" xmlns="http://www.w3.org/2000/svg">
<g id="Cics Explorer Streamline Carbon" clip-path="url(#clip0_0_40)">
<path id="Vector" d="M21 14L16.975 12.775L18.9875 9.0125L15.225 11.025L14 7L12.775 11.025L9.0125 9.0125L11.025 12.775L7 14L11.025 15.225L9.0125 18.9875L12.775 16.975L14 21L15.225 16.975L18.9875 18.9875L16.975 15.225L21 14Z" fill="var(--fill-0, white)"/>
<path id="Vector_2" d="M14 26.25C11.5772 26.25 9.20877 25.5316 7.19426 24.1855C5.17976 22.8395 3.60965 20.9263 2.68248 18.6879C1.7553 16.4495 1.51271 13.9864 1.98538 11.6101C2.45805 9.23388 3.62475 7.05114 5.33794 5.33794C7.05114 3.62475 9.23388 2.45805 11.6101 1.98538C13.9864 1.51271 16.4495 1.7553 18.6879 2.68248C20.9263 3.60965 22.8395 5.17976 24.1855 7.19426C25.5316 9.20877 26.25 11.5772 26.25 14C26.2463 17.2478 24.9545 20.3615 22.658 22.658C20.3615 24.9545 17.2478 26.2463 14 26.25ZM14 3.5C11.9233 3.5 9.89323 4.11581 8.16651 5.26957C6.4398 6.42332 5.09399 8.0632 4.29926 9.98182C3.50454 11.9004 3.29661 14.0116 3.70175 16.0484C4.1069 18.0852 5.10693 19.9562 6.57538 21.4246C8.04383 22.8931 9.91475 23.8931 11.9516 24.2982C13.9884 24.7034 16.0996 24.4955 18.0182 23.7007C19.9368 22.906 21.5767 21.5602 22.7304 19.8335C23.8842 18.1068 24.5 16.0767 24.5 14C24.4968 11.2162 23.3896 8.54733 21.4211 6.57888C19.4527 4.61044 16.7838 3.50317 14 3.5Z" fill="var(--fill-0, white)"/>
<g id="_Transparent_Rectangle_">
</g>
</g>
<defs>
<clipPath id="clip0_0_40">
<rect width="28" height="28" fill="white"/>
</clipPath>
</defs>
</svg>
