<svg preserveAspectRatio="none" width="100%" height="100%" overflow="visible" style="display: block;" viewBox="0 0 17.79 17.79" fill="none" xmlns="http://www.w3.org/2000/svg">
<g id="dots.svg" clip-path="url(#clip0_0_102)">
<path id="Vector" d="M16.6786 2.43008e-08C17.2926 5.11427e-08 17.7904 0.497804 17.7904 1.11188V1.66781C17.7904 2.28189 17.2926 2.77969 16.6786 2.77969H16.1226C15.5086 2.77969 15.0107 2.28189 15.0107 1.66781V1.11188C15.0107 0.497804 15.5086 -2.68417e-08 16.1226 0L16.6786 2.43008e-08Z" fill="var(--fill-0, #D8BFC0)"/>
<path id="Vector_2" d="M11.6747 -2.67309e-07C12.2887 -2.40467e-07 12.7866 0.497803 12.7866 1.11187V1.66781C12.7866 2.28189 12.2887 2.77969 11.6747 2.77969H11.1188C10.5047 2.77969 10.0069 2.28189 10.0069 1.66781V1.11187C10.0069 0.497803 10.5047 -3.18451e-07 11.1188 -2.91609e-07L11.6747 -2.67309e-07Z" fill="var(--fill-0, #D8BFC0)"/>
<path id="Vector_3" d="M6.67172 2.43004e-08C7.28579 5.11426e-08 7.78359 0.497803 7.78359 1.11188V1.66781C7.78359 2.28189 7.28579 2.77969 6.67172 2.77969H6.11578C5.50171 2.77969 5.00391 2.28189 5.00391 1.66781V1.11188C5.00391 0.497803 5.50171 -2.68421e-08 6.11578 0L6.67172 2.43004e-08Z" fill="var(--fill-0, #D8BFC0)"/>
<path id="Vector_4" d="M1.66781 2.43004e-08C2.28189 5.11425e-08 2.77969 0.497803 2.77969 1.11188V1.66781C2.77969 2.28189 2.28189 2.77969 1.66781 2.77969H1.11188C0.497804 2.77969 -2.68417e-08 2.28189 0 1.66781L2.43008e-08 1.11188C5.11427e-08 0.497803 0.497804 -2.68436e-08 1.11188 0L1.66781 2.43004e-08Z" fill="var(--fill-0, #D8BFC0)"/>
<path id="Vector_5" d="M16.6786 5.00391C17.2926 5.00391 17.7904 5.50171 17.7904 6.11578V6.67172C17.7904 7.28579 17.2926 7.78359 16.6786 7.78359H16.1226C15.5086 7.78359 15.0107 7.28579 15.0107 6.67172V6.11578C15.0107 5.50171 15.5086 5.00391 16.1226 5.00391H16.6786Z" fill="var(--fill-0, #D8BFC0)"/>
<path id="Vector_6" d="M11.6746 5.00391C12.2887 5.00391 12.7865 5.50171 12.7865 6.11578V6.67172C12.7865 7.28579 12.2887 7.78359 11.6746 7.78359H11.1187C10.5047 7.78359 10.0068 7.28579 10.0068 6.67172V6.11578C10.0068 5.50171 10.5047 5.00391 11.1187 5.00391H11.6746Z" fill="var(--fill-0, #D8BFC0)"/>
<path id="Vector_7" d="M16.6786 10.0078C17.2926 10.0078 17.7904 10.5056 17.7904 11.1197V11.6756C17.7904 12.2897 17.2926 12.7875 16.6786 12.7875H16.1226C15.5086 12.7875 15.0107 12.2897 15.0107 11.6756V11.1197C15.0107 10.5056 15.5086 10.0078 16.1226 10.0078H16.6786Z" fill="var(--fill-0, #D8BFC0)"/>
<path id="Vector_8" d="M16.6786 15.0117C17.2926 15.0117 17.7904 15.5095 17.7904 16.1236V16.6795C17.7904 17.2936 17.2926 17.7914 16.6786 17.7914H16.1226C15.5086 17.7914 15.0107 17.2936 15.0107 16.6795V16.1236C15.0107 15.5095 15.5086 15.0117 16.1226 15.0117H16.6786Z" fill="var(--fill-0, #D8BFC0)"/>
</g>
<defs>
<clipPath id="clip0_0_102">
<rect width="17.79" height="17.79" fill="white"/>
</clipPath>
</defs>
</svg>
