<svg preserveAspectRatio="none" width="100%" height="100%" overflow="visible" style="display: block;" viewBox="0 0 46 46" fill="none" xmlns="http://www.w3.org/2000/svg">
<g id="Globe Streamline Carbon">
<rect width="46" height="46" fill="#F0E8E8"/>
<path id="Vector" d="M18.625 18.625V24.2843C18.6272 25.1125 18.8634 25.9232 19.3063 26.623C19.7493 27.3227 20.381 27.883 21.1286 28.2393L23 29.125L24.8714 28.2389C25.6189 27.8826 26.2506 27.3224 26.6936 26.6227C27.1365 25.923 27.3727 25.1124 27.375 24.2843V18.625H18.625ZM25.625 24.2843C25.6236 24.7811 25.4819 25.2674 25.2161 25.687C24.9503 26.1067 24.5713 26.4427 24.1228 26.6564L23 27.1878L21.8772 26.6564C21.4287 26.4427 21.0497 26.1067 20.7839 25.687C20.5181 25.2674 20.3764 24.7811 20.375 24.2843V20.375H25.625V24.2843Z" fill="var(--fill-0, #84181F)"/>
<path id="Vector_2" d="M35.6123 24.2373C35.7748 24.0748 35.9038 23.882 35.9917 23.6696C36.0797 23.4573 36.125 23.2298 36.125 23C36.125 22.7702 36.0797 22.5426 35.9917 22.3303C35.9038 22.118 35.7748 21.9251 35.6123 21.7626L30.5488 16.6994L33.0868 14.1944C33.4611 14.2872 33.8556 14.2538 34.209 14.0995C34.5624 13.9452 34.855 13.6786 35.0414 13.341C35.2278 13.0034 35.2976 12.6137 35.24 12.2324C35.1824 11.8511 35.0005 11.4995 34.7226 11.2321C34.4447 10.9647 34.0864 10.7965 33.7032 10.7536C33.3199 10.7106 32.9332 10.7954 32.6031 10.9946C32.2729 11.1939 32.0177 11.4965 31.8771 11.8556C31.7365 12.2147 31.7183 12.6102 31.8254 12.9806L29.3113 15.4617L24.2373 10.3876C24.0748 10.2251 23.882 10.0962 23.6696 10.0082C23.4573 9.92027 23.2298 9.875 23 9.875C22.7702 9.875 22.5426 9.92027 22.3303 10.0082C22.118 10.0962 21.9251 10.2251 21.7626 10.3876L16.6994 15.451L14.1947 12.9127C14.2874 12.5383 14.2539 12.1438 14.0995 11.7904C13.9451 11.437 13.6784 11.1444 13.3408 10.958C13.0031 10.7716 12.6134 10.7019 12.232 10.7597C11.8507 10.8174 11.4991 10.9994 11.2317 11.2774C10.9644 11.5553 10.7962 11.9138 10.7534 12.2971C10.7105 12.6804 10.7954 13.0671 10.9948 13.3972C11.1941 13.7274 11.4969 13.9825 11.8561 14.123C12.2152 14.2635 12.6108 14.2816 12.9812 14.1744L15.4619 16.6887L10.3876 21.7626C10.2251 21.9251 10.0962 22.118 10.0082 22.3303C9.92027 22.5426 9.875 22.7702 9.875 23C9.875 23.2298 9.92027 23.4573 10.0082 23.6696C10.0962 23.882 10.2251 24.0748 10.3876 24.2373L15.4617 29.3113L12.9812 31.8256C12.6116 31.7192 12.2172 31.7376 11.8591 31.8781C11.501 32.0187 11.1993 32.2734 11.0007 32.6028C10.802 32.9322 10.7176 33.3179 10.7605 33.7002C10.8034 34.0825 10.9712 34.4399 11.2378 34.7171C11.5045 34.9944 11.8552 35.1759 12.2355 35.2336C12.6158 35.2912 13.0045 35.2219 13.3414 35.0362C13.6783 34.8505 13.9445 34.5589 14.0988 34.2065C14.2531 33.8542 14.2869 33.4607 14.1949 33.0872L16.6995 30.549L21.7628 35.6123C21.9253 35.7748 22.1182 35.9038 22.3305 35.9917C22.5428 36.0797 22.7704 36.125 23.0002 36.125C23.23 36.125 23.4575 36.0797 23.6698 35.9917C23.8821 35.9038 24.075 35.7748 24.2375 35.6123L29.3114 30.5383L31.8256 33.0193C31.7192 33.3891 31.7377 33.7836 31.8782 34.1417C32.0188 34.4998 32.2736 34.8016 32.6031 35.0002C32.9326 35.1988 33.3184 35.2832 33.7008 35.2403C34.0831 35.1973 34.4406 35.0294 34.7178 34.7627C34.995 34.4959 35.1765 34.1451 35.2342 33.7647C35.2918 33.3843 35.2223 32.9956 35.0365 32.6587C34.8507 32.3218 34.559 32.0556 34.2065 31.9013C33.854 31.7471 33.4605 31.7134 33.087 31.8055L30.549 29.3006L35.6123 24.2373ZM23 34.375L11.625 23L23 11.625L34.375 23L23 34.375Z" fill="var(--fill-0, #84181F)"/>
<g id="_Transparent_Rectangle_">
</g>
</g>
</svg>
