<svg preserveAspectRatio="none" width="100%" height="100%" overflow="visible" style="display: block;" viewBox="0 0 28 28" fill="none" xmlns="http://www.w3.org/2000/svg">
<g id="Group">
<path id="Vector" d="M24.5 11.375H26.25V13.125H24.5V11.375ZM20.8057 4.19737L22.043 2.96012L23.2803 4.19737L22.043 5.43463L20.8057 4.19737ZM13.125 0H14.875V1.75H13.125V0ZM5.957 5.45388L4.71887 4.21575L5.957 2.9785L7.19425 4.21575L5.957 5.45388ZM1.75 11.375H3.5V13.125H1.75V11.375ZM11.375 26.25H16.625V28H11.375V26.25ZM9.625 22.75H18.375V24.5H9.625V22.75ZM14 3.5C9.1875 3.5 5.25 7.4375 5.25 12.25C5.25 16.1 7 17.7625 8.3125 18.9C9.1875 19.6875 9.625 20.2125 9.625 21H11.375C11.375 19.425 10.4125 18.4625 9.45 17.5875C8.225 16.5375 7 15.3125 7 12.25C7 8.4 10.15 5.25 14 5.25C17.85 5.25 21 8.4 21 12.25C21 15.3125 19.775 16.5375 18.55 17.5875C17.5875 18.4625 16.625 19.3375 16.625 21H18.375C18.375 20.2125 18.8125 19.6875 19.6875 18.9C21 17.7625 22.75 16.1 22.75 12.25C22.75 7.4375 18.8125 3.5 14 3.5Z" fill="var(--fill-0, #84181F)"/>
<g id="Vector_2">
</g>
</g>
</svg>
