<svg preserveAspectRatio="none" width="100%" height="100%" overflow="visible" style="display: block;" viewBox="0 0 14.9988 14.9996" fill="none" xmlns="http://www.w3.org/2000/svg">
<g id="Vector">
<path d="M2.04877e-08 0.937412C4.31179e-08 0.419711 0.419694 0 0.937412 0H1.40612C1.92384 0 2.34353 0.419711 2.34353 0.937412V1.40612C2.34353 1.92382 1.92384 2.34353 1.40612 2.34353H0.937412C0.419694 2.34353 -2.263e-08 1.92382 0 1.40612L2.04877e-08 0.937412Z" fill="var(--fill-0, #D8BFC0)"/>
<path d="M2.04875e-08 5.15616C4.31179e-08 4.63846 0.419694 4.21875 0.937412 4.21875H1.40612C1.92384 4.21875 2.34353 4.63846 2.34353 5.15616V5.62487C2.34353 6.14257 1.92384 6.56228 1.40612 6.56228H0.937412C0.419693 6.56228 -2.26304e-08 6.14257 0 5.62487L2.04875e-08 5.15616Z" fill="var(--fill-0, #D8BFC0)"/>
<path d="M3.24234e-07 9.37472C3.46864e-07 8.857 0.419694 8.43731 0.937413 8.43731H1.40612C1.92384 8.43731 2.34353 8.857 2.34353 9.37472V9.84343C2.34353 10.3611 1.92384 10.7808 1.40612 10.7808H0.937413C0.419694 10.7808 2.81116e-07 10.3611 3.03746e-07 9.84343L3.24234e-07 9.37472Z" fill="var(--fill-0, #D8BFC0)"/>
<path d="M3.24234e-07 13.5935C3.46864e-07 13.0758 0.419694 12.6561 0.937413 12.6561H1.40612C1.92384 12.6561 2.34353 13.0758 2.34353 13.5935V14.0622C2.34353 14.5799 1.92384 14.9996 1.40612 14.9996H0.937413C0.419694 14.9996 2.81115e-07 14.5799 3.03746e-07 14.0622L3.24234e-07 13.5935Z" fill="var(--fill-0, #D8BFC0)"/>
<path d="M4.21875 0.937412C4.21875 0.419711 4.63844 0 5.15616 0H5.62487C6.14259 0 6.56228 0.419711 6.56228 0.937412V1.40612C6.56228 1.92382 6.14259 2.34353 5.62487 2.34353H5.15616C4.63844 2.34353 4.21875 1.92382 4.21875 1.40612V0.937412Z" fill="var(--fill-0, #D8BFC0)"/>
<path d="M4.21875 5.15616C4.21875 4.63846 4.63844 4.21875 5.15616 4.21875H5.62487C6.14259 4.21875 6.56228 4.63846 6.56228 5.15616V5.62487C6.56228 6.14257 6.14259 6.56228 5.62487 6.56228H5.15616C4.63844 6.56228 4.21875 6.14257 4.21875 5.62487V5.15616Z" fill="var(--fill-0, #D8BFC0)"/>
<path d="M8.43652 0.937412C8.43652 0.419711 8.85623 0 9.37394 0H9.84264C10.3603 0 10.7801 0.419711 10.7801 0.937412V1.40612C10.7801 1.92382 10.3603 2.34353 9.84264 2.34353H9.37394C8.85623 2.34353 8.43652 1.92382 8.43652 1.40612V0.937412Z" fill="var(--fill-0, #D8BFC0)"/>
<path d="M12.6553 0.937412C12.6553 0.419711 13.075 0 13.5927 0H14.0614C14.5791 0 14.9988 0.419711 14.9988 0.937412V1.40612C14.9988 1.92382 14.5791 2.34353 14.0614 2.34353H13.5927C13.075 2.34353 12.6553 1.92382 12.6553 1.40612V0.937412Z" fill="var(--fill-0, #D8BFC0)"/>
</g>
</svg>
