<svg preserveAspectRatio="none" width="100%" height="100%" overflow="visible" style="display: block;" viewBox="0 0 28 28" fill="none" xmlns="http://www.w3.org/2000/svg">
<g id="Data Vis 2 Streamline Carbon" clip-path="url(#clip0_0_97)">
<path id="Vector" d="M24.5 1.75H14.875C14.411 1.75046 13.9662 1.93499 13.6381 2.26307C13.31 2.59116 13.1255 3.03601 13.125 3.5V8.75H3.5C3.03601 8.75046 2.59116 8.93499 2.26307 9.26307C1.93499 9.59116 1.75046 10.036 1.75 10.5V24.5C1.75053 24.964 1.93508 25.4088 2.26315 25.7368C2.59122 26.0649 3.03603 26.2495 3.5 26.25H13.125C13.589 26.2495 14.0338 26.0649 14.3618 25.7368C14.6899 25.4088 14.8745 24.964 14.875 24.5V19.25H24.5C24.9639 19.2494 25.4087 19.0648 25.7367 18.7367C26.0648 18.4087 26.2494 17.9639 26.25 17.5V3.5C26.2495 3.03603 26.0649 2.59122 25.7368 2.26315C25.4088 1.93508 24.964 1.75053 24.5 1.75ZM24.5 3.5V7H14.875V3.5H24.5ZM13.1258 19.25H3.5V15.75H13.125L13.1258 19.25ZM14.875 8.75H24.5006L24.5011 12.25H14.875V8.75ZM13.125 10.5V14H3.5V10.5H13.125ZM3.5 24.5V21H13.126V24.5H3.5ZM14.875 17.5V14H24.5013V17.5H14.875Z" fill="var(--fill-0, #84181F)"/>
<g id="_Transparent_Rectangle_">
</g>
</g>
<defs>
<clipPath id="clip0_0_97">
<rect width="28" height="28" fill="white"/>
</clipPath>
</defs>
</svg>
