<svg preserveAspectRatio="none" width="100%" height="100%" overflow="visible" style="display: block;" viewBox="0 0 64.7946 20.9524" fill="none" xmlns="http://www.w3.org/2000/svg">
<g id="Highlight Icon">
<path id="Vector" fill-rule="evenodd" clip-rule="evenodd" d="M13.9165 6.12087C13.0209 5.54531 11.9681 5.23809 10.8911 5.23809V0C13.0451 0 15.1508 0.614418 16.9419 1.76556C18.7329 2.91669 20.1288 4.55285 20.9531 6.46711C21.7774 8.38137 21.9931 10.4878 21.5729 12.52C21.1527 14.5522 20.1154 16.4189 18.5922 17.884C17.0691 19.3491 15.1285 20.3469 13.0158 20.7511C10.9032 21.1553 8.71331 20.9478 6.72323 20.1549C4.73316 19.362 3.0322 18.0193 1.83548 16.2964C0.638751 14.5736 0 12.5482 0 10.4762H5.44554C5.44554 11.5122 5.76493 12.5249 6.36328 13.3863C6.96164 14.2477 7.81212 14.9191 8.80719 15.3156C9.8022 15.712 10.8971 15.8157 11.9535 15.6136C13.0098 15.4115 13.9801 14.9126 14.7417 14.1801C15.5032 13.4475 16.0219 12.5142 16.232 11.4981C16.4421 10.482 16.3343 9.42878 15.9221 8.47168C15.5099 7.51452 14.812 6.69643 13.9165 6.12087Z" fill="var(--fill-0, #84181F)" fill-opacity="0.5"/>
<path id="Vector_2" fill-rule="evenodd" clip-rule="evenodd" d="M5.44554 2.7683e-06C5.44554 0.687879 5.30469 1.36902 5.03103 2.00454C4.75736 2.64005 4.35625 3.21749 3.85058 3.7039C3.34492 4.1903 2.74461 4.57613 2.08392 4.83937C1.42323 5.10261 0.715117 5.2381 2.3803e-07 5.2381L0 10.4762C1.43024 10.4762 2.84647 10.2052 4.16784 9.67875C5.48921 9.15226 6.68985 8.38059 7.70114 7.40777C8.71249 6.435 9.51472 5.28011 10.0621 4.00907C10.6094 2.73803 10.8911 1.37575 10.8911 0L5.44554 2.7683e-06Z" fill="var(--fill-0, #84181F)" fill-opacity="0.5"/>
<path id="Vector_3" d="M27.8574 15.6417V3.91406H30.5687V13.3493H35.974V15.6417H27.8574Z" fill="var(--fill-0, #84181F)" fill-opacity="0.5"/>
<path id="Vector_4" fill-rule="evenodd" clip-rule="evenodd" d="M40.8563 15.8253C39.9928 15.8253 39.21 15.6426 38.5077 15.2771C37.8169 14.9006 37.2701 14.3912 36.8671 13.7489C36.4642 13.1066 36.2627 12.3867 36.2627 11.5894C36.2627 10.7921 36.4642 10.0778 36.8671 9.44655C37.2701 8.8153 37.8169 8.31695 38.5077 7.95154C39.1984 7.57498 39.9813 7.38672 40.8563 7.38672C41.7313 7.38672 42.5141 7.56948 43.2049 7.93489C43.8957 8.30035 44.4426 8.80425 44.8455 9.44655C45.2484 10.0778 45.4499 10.7921 45.4499 11.5894C45.4499 12.3867 45.2484 13.1066 44.8455 13.7489C44.4426 14.3912 43.8957 14.9006 43.2049 15.2771C42.5141 15.6426 41.7313 15.8253 40.8563 15.8253ZM40.8563 13.5163C41.2362 13.5163 41.5701 13.4388 41.8579 13.2838C42.1457 13.1177 42.3645 12.8906 42.5141 12.6027C42.6753 12.3037 42.7559 11.9659 42.7559 11.5894C42.7559 11.2129 42.6753 10.8862 42.5141 10.6094C42.3529 10.3214 42.1285 10.0999 41.8406 9.9449C41.5643 9.77875 41.2362 9.69572 40.8563 9.69572C40.4879 9.69572 40.1598 9.77875 39.8719 9.9449C39.5842 10.0999 39.3596 10.3214 39.1984 10.6094C39.0373 10.8973 38.9567 11.2295 38.9567 11.606C38.9567 11.9715 39.0373 12.3037 39.1984 12.6027C39.3596 12.8906 39.5842 13.1177 39.8719 13.2838C40.1598 13.4388 40.4879 13.5163 40.8563 13.5163Z" fill="var(--fill-0, #84181F)" fill-opacity="0.5"/>
<path id="Vector_5" fill-rule="evenodd" clip-rule="evenodd" d="M47.5423 18.8017C48.2446 19.1117 49.0562 19.2668 49.9773 19.2668C50.8752 19.2668 51.6754 19.0951 52.3777 18.7518C53.08 18.4085 53.6325 17.9324 54.0355 17.3233C54.4384 16.7142 54.6402 15.9944 54.6402 15.1638V7.5724H52.0495V8.11481C51.8569 7.95882 51.6381 7.82786 51.3933 7.7219C50.9443 7.51148 50.432 7.40625 49.8564 7.40625C49.085 7.40625 48.4 7.58345 47.8013 7.93781C47.2026 8.28112 46.7306 8.75731 46.3852 9.3664C46.0398 9.96443 45.8672 10.6399 45.8672 11.393C45.8672 12.135 46.0398 12.8105 46.3852 13.4196C46.7306 14.0287 47.2026 14.5104 47.8013 14.8648C48.4 15.2191 49.085 15.3963 49.8564 15.3963C50.4205 15.3963 50.9328 15.2912 51.3933 15.0807C51.6164 14.9788 51.8179 14.8587 51.9977 14.7204V15.2302C51.9977 15.795 51.8078 16.2324 51.4279 16.5425C51.0595 16.8526 50.5471 17.0076 49.8909 17.0076C49.3613 17.0076 48.9066 16.919 48.5266 16.7418C48.1582 16.5647 47.8243 16.3044 47.525 15.9611L45.9017 17.5226C46.3046 18.0763 46.8515 18.5027 47.5423 18.8017ZM51.307 12.9046C51.0421 13.0597 50.7256 13.1372 50.3571 13.1372C49.9888 13.1372 49.6664 13.0597 49.3901 12.9046C49.1253 12.7496 48.9181 12.5392 48.7684 12.2734C48.6187 11.9965 48.5439 11.7031 48.5439 11.393C48.5439 11.0608 48.6187 10.7618 48.7684 10.496C48.9181 10.2302 49.131 10.0198 49.4073 9.86475C49.6836 9.7097 50.0002 9.63218 50.3571 9.63218C50.7256 9.63218 51.0421 9.7097 51.307 9.86475C51.5833 10.0198 51.7905 10.2302 51.9287 10.496C52.0783 10.7618 52.1531 11.0608 52.1531 11.393C52.1531 11.7252 52.0783 12.0242 51.9287 12.29C51.7905 12.5447 51.5833 12.7496 51.307 12.9046Z" fill="var(--fill-0, #84181F)" fill-opacity="0.5"/>
<path id="Vector_6" fill-rule="evenodd" clip-rule="evenodd" d="M60.2013 15.8253C59.3376 15.8253 58.5546 15.6426 57.8526 15.2771C57.1616 14.9006 56.6148 14.3912 56.2119 13.7489C55.8089 13.1066 55.6074 12.3867 55.6074 11.5894C55.6074 10.7921 55.8089 10.0778 56.2119 9.44655C56.6148 8.8153 57.1616 8.31695 57.8526 7.95154C58.5431 7.57498 59.3262 7.38672 60.2013 7.38672C61.0758 7.38672 61.8589 7.56948 62.5494 7.93489C63.2404 8.30035 63.7872 8.80425 64.1901 9.44655C64.5931 10.0778 64.7946 10.7921 64.7946 11.5894C64.7946 12.3867 64.5931 13.1066 64.1901 13.7489C63.7872 14.3912 63.2404 14.9006 62.5494 15.2771C61.8589 15.6426 61.0758 15.8253 60.2013 15.8253ZM60.2013 13.5163C60.5808 13.5163 60.9147 13.4388 61.2027 13.2838C61.4902 13.1177 61.7092 12.8906 61.8589 12.6027C62.0201 12.3037 62.1007 11.9659 62.1007 11.5894C62.1007 11.2129 62.0201 10.8862 61.8589 10.6094C61.6977 10.3214 61.4734 10.0999 61.1853 9.9449C60.9092 9.77875 60.5808 9.69572 60.2013 9.69572C59.8326 9.69572 59.5043 9.77875 59.2167 9.9449C58.9287 10.0999 58.7043 10.3214 58.5431 10.6094C58.3819 10.8973 58.3013 11.2295 58.3013 11.606C58.3013 11.9715 58.3819 12.3037 58.5431 12.6027C58.7043 12.8906 58.9287 13.1177 59.2167 13.2838C59.5043 13.4388 59.8326 13.5163 60.2013 13.5163Z" fill="var(--fill-0, #84181F)" fill-opacity="0.5"/>
</g>
</svg>
