<svg preserveAspectRatio="none" width="100%" height="100%" overflow="visible" style="display: block;" viewBox="0 0 46 46" fill="none" xmlns="http://www.w3.org/2000/svg">
<g id="Globe Streamline Carbon">
<rect width="46" height="46" fill="#F0E8E8"/>
<path id="Vector" d="M21.25 12.5C22.4614 12.5 23.6456 12.8592 24.6529 13.5322C25.6601 14.2053 26.4452 15.1619 26.9088 16.2811C27.3724 17.4003 27.4936 18.6318 27.2573 19.8199C27.021 21.0081 26.4376 22.0994 25.581 22.956C24.7244 23.8126 23.6331 24.396 22.4449 24.6323C21.2568 24.8686 20.0253 24.7473 18.9061 24.2838C17.7869 23.8202 16.8303 23.0351 16.1573 22.0279C15.4842 21.0206 15.125 19.8364 15.125 18.625C15.125 17.0005 15.7703 15.4426 16.919 14.294C18.0676 13.1453 19.6256 12.5 21.25 12.5ZM21.25 10.75C19.6925 10.75 18.1699 11.2119 16.8749 12.0772C15.5799 12.9425 14.5705 14.1724 13.9745 15.6114C13.3784 17.0503 13.2225 18.6337 13.5263 20.1613C13.8302 21.6889 14.5802 23.0921 15.6815 24.1935C16.7829 25.2948 18.1861 26.0448 19.7137 26.3487C21.2413 26.6525 22.8247 26.4966 24.2636 25.9006C25.7026 25.3045 26.9325 24.2952 27.7978 23.0001C28.6631 21.7051 29.125 20.1825 29.125 18.625C29.125 16.5364 28.2953 14.5334 26.8185 13.0565C25.3416 11.5797 23.3386 10.75 21.25 10.75Z" fill="var(--fill-0, #84181F)"/>
<path id="Vector_2" d="M33.4998 18.6268C33.5009 17.0182 33.1841 15.4252 32.5676 13.9394C31.9512 12.4536 31.0473 11.1042 29.9079 9.96875L28.671 11.2056C30.6429 13.1696 31.7541 15.8363 31.76 18.6194C31.766 21.4025 30.6663 24.074 28.7028 26.0464C26.7392 28.0188 24.0727 29.1305 21.2896 29.137C18.5065 29.1435 15.8348 28.0444 13.862 26.0813L13.8287 26.0479L12.5918 27.2848C13.7272 28.4243 15.0766 29.3282 16.5625 29.9446C18.0483 30.561 19.6412 30.8778 21.2498 30.8768V33.5018H17.7498V35.2518H26.4998V33.5018H22.9998V30.7368C25.9122 30.3147 28.5755 28.859 30.5033 26.6356C32.4311 24.4122 33.4947 21.5695 33.4998 18.6268Z" fill="var(--fill-0, #84181F)"/>
<g id="_Transparent_Rectangle_">
</g>
</g>
</svg>
