<svg preserveAspectRatio="none" width="100%" height="100%" overflow="visible" style="display: block;" viewBox="0 0 28 28" fill="none" xmlns="http://www.w3.org/2000/svg">
<g id="Gateway Public Streamline Carbon" clip-path="url(#clip0_0_33)">
<path id="Vector" d="M16.625 12.25H12.25V10.5C12.25 10.0359 12.4344 9.59075 12.7626 9.26256C13.0908 8.93437 13.5359 8.75 14 8.75C14.4641 8.75 14.9092 8.93437 15.2374 9.26256C15.5656 9.59075 15.75 10.0359 15.75 10.5H17.5C17.5 9.57174 17.1313 8.6815 16.4749 8.02513C15.8185 7.36875 14.9283 7 14 7C13.0717 7 12.1815 7.36875 11.5251 8.02513C10.8687 8.6815 10.5 9.57174 10.5 10.5V12.4935C10.2349 12.6459 10.0145 12.8652 9.86089 13.1297C9.70731 13.3941 9.62596 13.6942 9.625 14V18.375C9.62553 18.839 9.81008 19.2838 10.1382 19.6118C10.4662 19.9399 10.911 20.1245 11.375 20.125H16.625C17.089 20.1245 17.5338 19.9399 17.8618 19.6118C18.1899 19.2838 18.3745 18.839 18.375 18.375V14C18.3745 13.536 18.1899 13.0912 17.8618 12.7632C17.5338 12.4351 17.089 12.2505 16.625 12.25ZM16.625 18.375H11.375V14H16.625V18.375Z" fill="var(--fill-0, #84181F)"/>
<path id="Vector_2" d="M26.6123 15.2373C26.7749 15.0749 26.9038 14.882 26.9917 14.6697C27.0797 14.4574 27.125 14.2298 27.125 14C27.125 13.7702 27.0797 13.5426 26.9917 13.3303C26.9038 13.118 26.7749 12.9251 26.6123 12.7627L21.5488 7.69939L24.0868 5.19444C24.4611 5.28719 24.8556 5.25383 25.209 5.09952C25.5624 4.94521 25.855 4.67858 26.0414 4.341C26.2279 4.00342 26.2977 3.61375 26.24 3.23246C26.1824 2.85116 26.0005 2.49954 25.7226 2.23215C25.4448 1.96476 25.0864 1.79654 24.7032 1.7536C24.3199 1.71066 23.9332 1.79539 23.6031 1.99465C23.2729 2.1939 23.0177 2.49655 22.8771 2.85563C22.7365 3.21472 22.7183 3.61017 22.8254 3.98064L20.3113 6.4617L15.2373 1.38766C15.0749 1.22514 14.882 1.09621 14.6697 1.00825C14.4574 0.920291 14.2298 0.875017 14 0.875017C13.7702 0.875017 13.5426 0.920291 13.3303 1.00825C13.118 1.09621 12.9251 1.22514 12.7627 1.38766L7.69939 6.45102L5.1947 3.91274C5.2874 3.53836 5.25396 3.14386 5.09956 2.79043C4.94517 2.437 4.67845 2.1444 4.34078 1.95803C4.00312 1.77167 3.61339 1.70194 3.23205 1.75968C2.85072 1.81742 2.4991 1.9994 2.23174 2.27737C1.96439 2.55535 1.79624 2.91379 1.7534 3.29709C1.71055 3.68038 1.7954 4.0671 1.99478 4.39725C2.19415 4.7274 2.49691 4.98253 2.85609 5.12304C3.21526 5.26356 3.61077 5.28161 3.98125 5.1744L6.46187 7.68871L1.38766 12.7627C1.22514 12.9251 1.09621 13.118 1.00825 13.3303C0.920291 13.5426 0.875017 13.7702 0.875017 14C0.875017 14.2298 0.920291 14.4574 1.00825 14.6697C1.09621 14.882 1.22514 15.0749 1.38766 15.2373L6.4617 20.3113L3.98125 22.8256C3.6116 22.7192 3.21718 22.7376 2.8591 22.8782C2.50102 23.0187 2.19929 23.2734 2.00067 23.6028C1.80206 23.9322 1.71765 24.318 1.76053 24.7002C1.80341 25.0825 1.97119 25.4399 2.23786 25.7172C2.50453 25.9944 2.85519 26.1759 3.23551 26.2336C3.61582 26.2913 4.00454 26.2219 4.34141 26.0362C4.67829 25.8505 4.94451 25.5589 5.09881 25.2065C5.25311 24.8542 5.28688 24.4608 5.19487 24.0873L7.69956 21.549L12.7628 26.6123C12.9253 26.7749 13.1182 26.9038 13.3305 26.9917C13.5428 27.0797 13.7704 27.125 14.0002 27.125C14.23 27.125 14.4575 27.0797 14.6698 26.9917C14.8821 26.9038 15.075 26.7749 15.2375 26.6123L20.3115 21.5383L22.8256 24.0194C22.7192 24.3891 22.7377 24.7836 22.8783 25.1417C23.0188 25.4999 23.2736 25.8016 23.6031 26.0002C23.9326 26.1988 24.3185 26.2832 24.7008 26.2403C25.0831 26.1973 25.4406 26.0295 25.7178 25.7627C25.9951 25.4959 26.1766 25.1452 26.2342 24.7648C26.2918 24.3844 26.2223 23.9956 26.0365 23.6587C25.8507 23.3218 25.559 23.0556 25.2065 22.9013C24.854 22.7471 24.4605 22.7134 24.087 22.8056L21.549 20.3006L26.6123 15.2373ZM14 25.375L2.625 14L14 2.625L25.375 14L14 25.375Z" fill="var(--fill-0, #84181F)"/>
<g id="_Transparent_Rectangle_">
</g>
</g>
<defs>
<clipPath id="clip0_0_33">
<rect width="28" height="28" fill="white"/>
</clipPath>
</defs>
</svg>
