<svg preserveAspectRatio="none" width="100%" height="100%" overflow="visible" style="display: block;" viewBox="0 0 25 25" fill="none" xmlns="http://www.w3.org/2000/svg">
<g id="Finance Streamline Carbon" clip-path="url(#clip0_0_68)">
<path id="Vector" d="M1.5625 21.875H23.4375V23.4375H1.5625V21.875Z" fill="var(--fill-0, #84181F)"/>
<path id="Vector_2" d="M21.0937 8.59342C21.301 8.59342 21.4997 8.51111 21.6462 8.3646C21.7927 8.21808 21.875 8.01937 21.875 7.81217V5.46842C21.8749 5.30786 21.8254 5.15122 21.7331 5.01982C21.6409 4.88842 21.5104 4.78863 21.3594 4.73404L12.7656 1.60904C12.594 1.54699 12.406 1.54699 12.2344 1.60904L3.64063 4.73404C3.48963 4.78863 3.35913 4.88842 3.26686 5.01982C3.1746 5.15122 3.12507 5.30786 3.125 5.46842V7.81217C3.125 8.01937 3.20731 8.21808 3.35382 8.3646C3.50034 8.51111 3.69905 8.59342 3.90625 8.59342H4.6875V18.7497H3.125V20.3122H21.875V18.7497H20.3125V8.59342H21.0937ZM4.6875 6.01529L12.5 3.17154L20.3125 6.01529V7.03092H4.6875V6.01529ZM14.0625 18.7497H10.9375V8.59342H14.0625V18.7497ZM6.25 8.59342H9.375V18.7497H6.25V8.59342ZM18.75 18.7497H15.625V8.59342H18.75V18.7497Z" fill="var(--fill-0, #84181F)"/>
<g id="_Transparent_Rectangle_">
</g>
</g>
<defs>
<clipPath id="clip0_0_68">
<rect width="25" height="25" fill="white"/>
</clipPath>
</defs>
</svg>
