<svg preserveAspectRatio="none" width="100%" height="100%" overflow="visible" style="display: block;" viewBox="0 0 295.008 81.7106" fill="none" xmlns="http://www.w3.org/2000/svg">
<g id="logo">
<path id="Vector" d="M95.3682 67.6686V2.58125C95.7751 2.58125 96.1373 2.58125 96.5036 2.58125C102.913 2.58125 109.323 2.56094 115.733 2.58936C120.193 2.60966 124.58 3.10497 128.686 5.00497C134.872 7.86716 138.055 12.7999 138.45 19.5148C138.759 24.7764 137.367 29.4777 133.371 33.1803C133.171 33.367 132.964 33.5416 132.756 33.7162C132.549 33.8908 132.341 34.0613 132.052 34.3008C132.756 34.8408 133.444 35.3198 134.075 35.8598C139.076 40.1429 140.497 45.6684 139.638 51.9611C138.539 60.0524 132.899 64.8146 125.675 66.6496C122.647 67.421 119.574 67.6768 116.461 67.6727C109.811 67.6646 103.166 67.6727 96.5158 67.6727H95.3722L95.3682 67.6686ZM108.432 55.4039C110.817 55.4039 113.1 55.4607 115.375 55.3876C117.173 55.3308 118.988 55.2496 120.755 54.937C124.336 54.3077 126.627 51.7622 126.884 48.3966C127.152 44.8686 125.341 42.1322 121.849 40.898C121.023 40.6057 120.14 40.3337 119.273 40.3053C115.737 40.1916 112.192 40.1713 108.656 40.1226C108.599 40.1226 108.542 40.1835 108.432 40.2485V55.4039ZM108.44 29.1286C111.594 29.1286 114.687 29.2057 117.772 29.088C118.968 29.0433 120.189 28.6739 121.329 28.2598C124.71 27.0256 126.391 23.6681 125.475 20.1847C124.588 16.8272 122.02 15.3819 118.927 15.0734C115.517 14.7324 112.058 14.8947 108.619 14.846C108.566 14.846 108.513 14.9232 108.444 14.9759V29.1286H108.44Z" fill="var(--fill-0, #84181F)"/>
<path id="Vector_2" d="M209.595 59.9356V66.9215H197.11V65.8328C197.11 45.1404 197.114 24.448 197.09 3.75565C197.09 2.8317 197.333 2.56255 198.278 2.5746C201.844 2.63084 205.413 2.5947 208.979 2.59872C209.312 2.59872 209.644 2.62683 210.098 2.64692V27.7542C210.171 27.7783 210.244 27.8064 210.322 27.8305C210.666 27.3605 210.999 26.8825 211.36 26.4245C214.098 22.9497 217.712 20.9571 222.121 20.5996C229.958 19.9649 236.647 22.3551 241.511 28.658C246.26 34.8123 247.627 41.8424 246.062 49.3785C244.683 56.0109 241.287 61.422 235.223 64.7723C229.248 68.0704 222.937 68.677 216.52 65.9654C213.615 64.7402 211.522 62.5468 209.892 59.8955C209.79 59.9075 209.693 59.9196 209.591 59.9316L209.595 59.9356ZM211.015 43.8951C210.938 50.7363 215.761 55.7377 222.499 55.806C228.981 55.8743 234.035 50.7966 234.104 44.1522C234.173 37.4677 229.236 32.3418 222.645 32.2614C215.96 32.1811 211.092 37.0499 211.015 43.8951Z" fill="var(--fill-0, #84181F)"/>
<path id="Vector_3" d="M252.218 81.6815C253.432 79.0527 254.539 76.6538 255.65 74.255C258.11 68.948 260.582 63.6492 263.005 58.3258C263.182 57.9397 263.149 57.3154 262.96 56.9251C257.258 45.083 251.527 33.2613 245.801 21.4315C245.681 21.1892 245.587 20.9345 245.418 20.5361C245.833 20.5073 246.154 20.4662 246.475 20.4662C250.61 20.4621 254.749 20.4785 258.883 20.4498C259.603 20.4457 259.973 20.6634 260.294 21.3288C263.47 27.9338 266.688 34.5183 269.892 41.1068C270.036 41.4026 270.205 41.6901 270.448 42.146C271.456 39.9855 272.385 38.0015 273.307 36.0134C275.549 31.1747 277.804 26.3442 280.013 21.489C280.358 20.725 280.77 20.4334 281.634 20.4416C285.703 20.4909 289.767 20.4621 293.836 20.4662C294.169 20.4662 294.502 20.495 295.008 20.5196C294.001 22.7007 293.058 24.7463 292.112 26.7919C283.79 44.742 275.463 62.6881 267.161 80.6423C266.815 81.3858 266.437 81.7226 265.556 81.7103C261.524 81.6569 257.493 81.6856 253.457 81.6856C253.124 81.6856 252.786 81.6856 252.227 81.6856L252.218 81.6815Z" fill="var(--fill-0, #84181F)"/>
<path id="Vector_4" d="M172.931 67.6728V2.57422H186.918V67.6728H172.931Z" fill="var(--fill-0, #84181F)"/>
<path id="Vector_5" d="M162.695 67.6656H148.782V20.5199C149.102 20.4993 149.417 20.458 149.737 20.458C153.694 20.4539 157.656 20.4704 161.614 20.4415C162.419 20.4374 162.769 20.5694 162.769 21.4524C162.739 36.5542 162.747 51.656 162.747 66.7579C162.747 67.0302 162.717 67.2984 162.695 67.6698V67.6656Z" fill="var(--fill-0, #84181F)"/>
<path id="Vector_6" d="M155.64 15.3169C150.937 15.2763 147.465 11.9525 147.5 7.52489C147.531 3.19465 151.174 -0.05607 155.929 0.000746578C160.549 0.0535048 164.073 3.42191 164.03 7.74403C163.986 12.0864 160.36 15.3615 155.64 15.3169Z" fill="var(--fill-0, #84181F)"/>
<path id="Vector_7" d="M24.4666 54.9083C22.5738 54.9083 20.7299 54.795 18.9592 54.5602C9.894 53.3742 3.53577 49.2777 1.05679 43.0156C-3.78312 30.7909 8.43266 14.9433 28.8751 6.93659C49.3175 -1.07017 69.1208 2.23697 73.9648 14.4616C78.8047 26.6863 66.5889 42.5339 46.1465 50.5406C38.8235 53.4066 31.3133 54.9043 24.4707 54.9043L24.4666 54.9083ZM50.9335 10.9319C44.9131 10.9319 38.0338 12.2758 31.9321 14.664C18.3648 19.9789 5.53442 31.6814 8.82344 39.9756C10.1219 43.2504 14.2129 45.5698 20.046 46.3308C26.852 47.2214 35.0298 45.9746 43.0854 42.8213C56.6526 37.5064 69.4831 25.8039 66.194 17.5097C64.3867 12.9437 58.3012 10.9319 50.9335 10.9319Z" fill="var(--fill-0, #84181F)"/>
<path id="Vector_8" d="M41.8376 70.2247C40.8153 70.2247 39.793 70.2046 38.7748 70.1683C29.0833 69.8092 19.9755 67.8969 13.1295 64.7744C5.29745 61.204 1.09165 56.2942 1.28886 50.9487C1.48607 45.6032 6.03799 41.0162 14.1115 38.0348C21.1668 35.4286 30.3873 34.186 40.0828 34.5451C49.7742 34.9041 58.8821 36.8164 65.7281 39.939C73.5601 43.5094 77.7659 48.4192 77.5687 53.7647C77.1662 64.6937 59.3932 70.2247 41.8376 70.2247ZM36.7866 41.6132C29.1477 41.6132 22.0603 42.6944 16.5746 44.7237C11.6122 46.5593 8.47695 49.0445 8.39645 51.2109C8.31596 53.3774 11.258 56.0884 16.0756 58.2831C22.0965 61.0265 30.2505 62.7169 39.0364 63.0436C57.9806 63.7335 70.3042 57.8595 70.4611 53.5024C70.5416 51.332 67.5996 48.6249 62.782 46.4302C56.7611 43.6869 48.6071 41.9965 39.8212 41.6697C38.8029 41.6334 37.7887 41.6132 36.7866 41.6132Z" fill="var(--fill-0, #84181F)"/>
</g>
</svg>
