<svg preserveAspectRatio="none" width="100%" height="100%" overflow="visible" style="display: block;" viewBox="0 0 22.6875 11.375" fill="none" xmlns="http://www.w3.org/2000/svg">
<g id="Frame 1000003036">
<path id="Vector" fill-rule="evenodd" clip-rule="evenodd" d="M5.6875 0C2.54638 0 0 2.54638 0 5.6875C0 8.82822 2.54577 11.3744 5.68633 11.375H5.68867C8.82922 11.3744 11.375 8.82822 11.375 5.6875C11.375 2.54638 8.82863 0 5.6875 0ZM0.983488 4.66667C0.912421 4.99567 0.875 5.33721 0.875 5.6875C0.875 6.03779 0.912421 6.37933 0.983488 6.70833H2.9838C2.94056 6.3777 2.91667 6.03651 2.91667 5.6875C2.91667 5.33849 2.94056 4.9973 2.9838 4.66667H0.983488ZM1.26281 3.79167H3.14667C3.33251 3.02276 3.61247 2.33437 3.91668 1.76814C4.05571 1.50935 4.20143 1.27303 4.34794 1.0639C2.95765 1.46598 1.82635 2.47817 1.26281 3.79167ZM3.8672 4.66667C3.81876 4.99642 3.79167 5.33791 3.79167 5.6875C3.79167 6.03709 3.81876 6.37857 3.8672 6.70833H7.50779C7.55621 6.37857 7.58333 6.03709 7.58333 5.6875C7.58333 5.33791 7.55621 4.99642 7.50779 4.66667H3.8672ZM7.32509 3.79167H4.04989C4.21419 3.18575 4.44177 2.6396 4.68749 2.18224C4.92899 1.73275 5.18187 1.38043 5.39776 1.14738C5.50632 1.03023 5.5972 0.95221 5.6644 0.906862C5.67303 0.901063 5.68067 0.896146 5.6875 0.891987C5.69432 0.896146 5.70197 0.901063 5.7106 0.906862C5.7778 0.95221 5.86868 1.03023 5.97724 1.14738C6.19313 1.38043 6.44601 1.73275 6.68751 2.18224C6.93321 2.6396 7.16082 3.18575 7.32509 3.79167ZM8.39119 4.66667C8.43442 4.9973 8.45833 5.33849 8.45833 5.6875C8.45833 6.03651 8.43442 6.3777 8.39119 6.70833H10.3915C10.4625 6.37933 10.5 6.03779 10.5 5.6875C10.5 5.33721 10.4625 4.99567 10.3915 4.66667H8.39119ZM10.1122 3.79167H8.22832C8.04247 3.02276 7.76253 2.33437 7.45832 1.76814C7.31932 1.50935 7.17354 1.27303 7.02707 1.0639C8.41738 1.46598 9.54864 2.47817 10.1122 3.79167ZM4.34794 10.3111C2.95765 9.90903 1.82635 8.89682 1.26281 7.58333H3.14667C3.33251 8.35222 3.61247 9.04062 3.91668 9.60686C4.05571 9.86563 4.20143 10.102 4.34794 10.3111ZM4.68749 9.19275C4.44177 8.73542 4.21419 8.18924 4.04989 7.58333H7.32509C7.16082 8.18924 6.93321 8.73542 6.68751 9.19275C6.44601 9.64227 6.19313 9.99454 5.97724 10.2276C5.86868 10.3448 5.7778 10.4228 5.7106 10.4681C5.70197 10.4739 5.69432 10.4789 5.6875 10.483C5.68067 10.4789 5.67303 10.4739 5.6644 10.4681C5.5972 10.4228 5.50632 10.3448 5.39776 10.2276C5.18187 9.99454 4.92899 9.64227 4.68749 9.19275ZM7.45832 9.60686C7.76253 9.04062 8.04247 8.35222 8.22832 7.58333H10.1122C9.54864 8.89682 8.41738 9.90903 7.02707 10.3111C7.17354 10.102 7.31932 9.86563 7.45832 9.60686Z" fill="var(--fill-0, #792323)"/>
<path id="Polygon 1" d="M20.6875 7.6875L22.4196 4.6875H18.9554L20.6875 7.6875Z" fill="var(--fill-0, #792323)"/>
</g>
</svg>
