<svg preserveAspectRatio="none" width="100%" height="100%" overflow="visible" style="display: block;" viewBox="0 0 28 28" fill="none" xmlns="http://www.w3.org/2000/svg">
<g id="Screen Streamline Carbon" clip-path="url(#clip0_0_72)">
<path id="Vector" d="M24.5 3.5H3.5C3.03587 3.5 2.59075 3.68437 2.26256 4.01256C1.93437 4.34075 1.75 4.78587 1.75 5.25V19.25C1.75 19.7141 1.93437 20.1592 2.26256 20.4874C2.59075 20.8156 3.03587 21 3.5 21H10.5V24.5H7V26.25H21V24.5H17.5V21H24.5C24.9641 21 25.4092 20.8156 25.7374 20.4874C26.0656 20.1592 26.25 19.7141 26.25 19.25V5.25C26.25 4.78587 26.0656 4.34075 25.7374 4.01256C25.4092 3.68437 24.9641 3.5 24.5 3.5ZM15.75 24.5H12.25V21H15.75V24.5ZM24.5 19.25H3.5V5.25H24.5V19.25Z" fill="var(--fill-0, white)"/>
<g id="_Transparent_Rectangle_">
</g>
</g>
<defs>
<clipPath id="clip0_0_72">
<rect width="28" height="28" fill="white"/>
</clipPath>
</defs>
</svg>
