<svg preserveAspectRatio="none" width="100%" height="100%" overflow="visible" style="display: block;" viewBox="0 0 28 28" fill="none" xmlns="http://www.w3.org/2000/svg">
<g id="Sys Provision Streamline Carbon" clip-path="url(#clip0_0_54)">
<path id="Vector" d="M18.375 17.5V26.25L26.25 21.875L18.375 17.5Z" fill="var(--fill-0, #84181F)"/>
<path id="Vector_2" d="M10.5 12.25C10.5 12.7141 10.6844 13.1592 11.0126 13.4874C11.3408 13.8156 11.7859 14 12.25 14C12.7141 14 13.1592 13.8156 13.4874 13.4874C13.8156 13.1592 14 12.7141 14 12.25C14 11.7859 13.8156 11.3408 13.4874 11.0126C13.1592 10.6844 12.7141 10.5 12.25 10.5C11.7859 10.5 11.3408 10.6844 11.0126 11.0126C10.6844 11.3408 10.5 11.7859 10.5 12.25Z" fill="var(--fill-0, #84181F)"/>
<path id="Vector_3" d="M12.25 17.5C11.2116 17.5 10.1966 17.1921 9.33326 16.6152C8.4699 16.0383 7.79699 15.2184 7.39963 14.2591C7.00227 13.2998 6.8983 12.2442 7.10088 11.2258C7.30345 10.2074 7.80346 9.27191 8.53769 8.53769C9.27191 7.80346 10.2074 7.30345 11.2258 7.10088C12.2442 6.8983 13.2998 7.00227 14.2591 7.39963C15.2184 7.79699 16.0383 8.4699 16.6152 9.33326C17.1921 10.1966 17.5 11.2116 17.5 12.25C17.4985 13.6419 16.9449 14.9764 15.9606 15.9606C14.9764 16.9449 13.6419 17.4985 12.25 17.5ZM12.25 8.75C11.5578 8.75 10.8811 8.95527 10.3055 9.33986C9.72993 9.72444 9.28133 10.2711 9.01642 10.9106C8.75151 11.5501 8.6822 12.2539 8.81725 12.9328C8.9523 13.6118 9.28564 14.2354 9.77513 14.7249C10.2646 15.2144 10.8882 15.5477 11.5672 15.6827C12.2461 15.8178 12.9499 15.7485 13.5894 15.4836C14.2289 15.2187 14.7756 14.7701 15.1601 14.1945C15.5447 13.6189 15.75 12.9422 15.75 12.25C15.749 11.3221 15.3799 10.4324 14.7237 9.77628C14.0676 9.12013 13.1779 8.75104 12.25 8.75Z" fill="var(--fill-0, #84181F)"/>
<path id="Vector_4" d="M22.7071 11.2978H22.7015C22.5149 9.14392 21.6707 7.0995 20.2833 5.44148C18.8959 3.78347 17.0324 2.592 14.9453 2.02851C12.8581 1.46502 10.6481 1.55674 8.61482 2.29125C6.58152 3.02576 4.82314 4.36755 3.57793 6.13483C2.33272 7.90211 1.66086 10.0095 1.65338 12.1713C1.64591 14.3332 2.30317 16.4452 3.53613 18.221C4.76909 19.9969 6.51814 21.3508 8.54631 22.0994C10.5745 22.8479 12.7837 22.9549 14.8748 22.4059V20.5978C13.0202 21.1782 11.0251 21.1235 9.20513 20.4425C7.38516 19.7614 5.84431 18.4928 4.82646 16.8374C3.8086 15.1821 3.37188 13.2346 3.58542 11.3031C3.79896 9.37164 4.65055 7.56655 6.00542 6.17353C7.36029 4.78051 9.14104 3.87913 11.0658 3.61206C12.9906 3.34499 14.9495 3.72747 16.6325 4.69898C18.3154 5.67049 19.6263 7.17552 20.3577 8.97589C21.089 10.7762 21.199 12.7691 20.6703 14.639L22.3545 15.115C22.6173 14.1832 22.7503 13.2196 22.7498 12.2515C22.7498 11.9302 22.7355 11.6123 22.7071 11.2978Z" fill="var(--fill-0, #84181F)"/>
<g id="_Transparent_Rectangle_">
</g>
</g>
<defs>
<clipPath id="clip0_0_54">
<rect width="28" height="28" fill="white"/>
</clipPath>
</defs>
</svg>
