<svg preserveAspectRatio="none" width="100%" height="100%" overflow="visible" style="display: block;" viewBox="0 0 14.9988 14.9998" fill="none" xmlns="http://www.w3.org/2000/svg">
<g id="Vector">
<path d="M14.0612 0.000206354C14.5789 0.000206376 14.9986 0.4199 14.9986 0.937619V1.40632C14.9986 1.92404 14.5789 2.34374 14.0612 2.34374H13.5925C13.0748 2.34374 12.6551 1.92404 12.6551 1.40632V0.937619C12.6551 0.4199 13.0748 0.000206311 13.5925 0.000206333L14.0612 0.000206354Z" fill="var(--fill-0, #D8BFC0)"/>
<path d="M9.84284 0.000206354C10.3605 0.000206376 10.7802 0.4199 10.7802 0.937619V1.40632C10.7802 1.92404 10.3605 2.34374 9.84284 2.34374H9.37413C8.85643 2.34374 8.43672 1.92404 8.43672 1.40632V0.937619C8.43672 0.4199 8.85643 0.000206311 9.37413 0.000206333L9.84284 0.000206354Z" fill="var(--fill-0, #D8BFC0)"/>
<path d="M5.62482 2.04891e-08C6.14254 4.31195e-08 6.56223 0.419694 6.56223 0.937413V1.40612C6.56223 1.92384 6.14254 2.34353 5.62482 2.34353H5.15612C4.6384 2.34353 4.2187 1.92384 4.2187 1.40612V0.937413C4.2187 0.419694 4.6384 -2.26304e-08 5.15612 0L5.62482 2.04891e-08Z" fill="var(--fill-0, #D8BFC0)"/>
<path d="M1.40612 0.000238479C1.92384 0.000238502 2.34353 0.419932 2.34353 0.937651V1.40636C2.34353 1.92408 1.92384 2.34377 1.40612 2.34377H0.937412C0.419694 2.34377 -2.263e-08 1.92408 0 1.40636L2.04877e-08 0.937651C4.31179e-08 0.419932 0.419694 0.000238436 0.937412 0.000238459L1.40612 0.000238479Z" fill="var(--fill-0, #D8BFC0)"/>
<path d="M14.0612 4.21896C14.5789 4.21896 14.9986 4.63865 14.9986 5.15637V5.62507C14.9986 6.1428 14.5789 6.56249 14.0612 6.56249H13.5925C13.0748 6.56249 12.6551 6.1428 12.6551 5.62507V5.15637C12.6551 4.63865 13.0748 4.21896 13.5925 4.21896H14.0612Z" fill="var(--fill-0, #D8BFC0)"/>
<path d="M9.84284 4.21896C10.3605 4.21896 10.7802 4.63865 10.7802 5.15637V5.62507C10.7802 6.1428 10.3605 6.56249 9.84284 6.56249H9.37413C8.85643 6.56249 8.43672 6.1428 8.43672 5.62507V5.15637C8.43672 4.63865 8.85643 4.21896 9.37413 4.21896H9.84284Z" fill="var(--fill-0, #D8BFC0)"/>
<path d="M14.0613 8.4375C14.579 8.4375 14.9988 8.85721 14.9988 9.37491V9.84362C14.9988 10.3613 14.579 10.781 14.0613 10.781H13.5926C13.0749 10.781 12.6552 10.3613 12.6552 9.84362V9.37491C12.6552 8.85721 13.0749 8.4375 13.5926 8.4375H14.0613Z" fill="var(--fill-0, #D8BFC0)"/>
<path d="M14.0613 12.6563C14.579 12.6563 14.9988 13.076 14.9988 13.5937V14.0624C14.9988 14.5801 14.579 14.9998 14.0613 14.9998H13.5926C13.0749 14.9998 12.6552 14.5801 12.6552 14.0624V13.5937C12.6552 13.076 13.0749 12.6563 13.5926 12.6563H14.0613Z" fill="var(--fill-0, #D8BFC0)"/>
</g>
</svg>
