<svg preserveAspectRatio="none" width="100%" height="100%" overflow="visible" style="display: block;" viewBox="0 0 46 46" fill="none" xmlns="http://www.w3.org/2000/svg">
<g id="Layer_1" clip-path="url(#clip0_0_14)">
<path id="Vector" d="M11.2372 31.5636C11.6269 31.579 11.7362 31.1277 11.7362 30.0667C11.7362 28.9287 11.6269 28.5391 11.2372 28.5391C10.8476 28.5391 10.7383 28.9287 10.7383 30.0513C10.7383 31.1109 10.8322 31.5636 11.2372 31.5636Z" fill="var(--fill-0, #792323)"/>
<path id="Vector_2" d="M32.0195 34.9701C32.0195 34.2371 31.7546 33.9414 31.2557 33.9414C31.1309 33.9414 31.037 33.9568 30.96 33.9722V36.0451C31.0062 36.0451 31.0539 36.0605 31.2403 36.0605C31.7546 36.076 32.0195 35.7802 32.0195 34.9687V34.9701Z" fill="var(--fill-0, #792323)"/>
<path id="Vector_3" d="M11.7861 35.082C11.381 35.082 11.2871 35.4717 11.2871 36.5943C11.2871 37.6539 11.381 38.1066 11.7861 38.1066C12.1757 38.122 12.285 37.6707 12.285 36.6097C12.285 35.4717 12.1757 35.082 11.7861 35.082Z" fill="var(--fill-0, #792323)"/>
<path id="Vector_4" d="M26.6418 35.082C26.3461 35.082 26.2676 35.3469 26.2676 36.0799C26.2676 36.8129 26.3615 37.047 26.6418 37.047C26.9221 37.047 27.0314 36.7975 27.0314 36.0799C27.0314 35.3623 26.9221 35.082 26.6418 35.082Z" fill="var(--fill-0, #792323)"/>
<path id="Vector_5" d="M25.7221 38.9632C25.7221 39.2911 26.0809 39.4929 26.6415 39.4929C27.2498 39.4929 27.5918 39.2435 27.5918 38.994C27.5918 38.7599 27.4054 38.6829 26.8896 38.589L26.0164 38.418C25.8763 38.5427 25.7207 38.6366 25.7207 38.9632H25.7221Z" fill="var(--fill-0, #792323)"/>
<path id="Vector_6" d="M34.5136 35.082C34.1086 35.082 34.0146 35.4717 34.0146 36.5943C34.0146 37.6539 34.1086 38.1066 34.5136 38.1066C34.9186 38.122 35.0125 37.6707 35.0125 36.6097C35.0125 35.4717 34.9032 35.082 34.5136 35.082Z" fill="var(--fill-0, #792323)"/>
<path id="Vector_7" d="M0 0V46H46V0H0ZM37.2235 29.9131C37.7071 29.7267 38.0336 29.6636 38.0336 29.1493C38.0336 28.7134 37.8626 28.5564 37.644 28.5564C37.3483 28.5564 37.1759 28.7428 37.1451 28.7905C37.1913 28.8213 37.3945 28.8998 37.3945 29.1801C37.3945 29.4604 37.1605 29.6328 36.8802 29.6328C36.5844 29.6328 36.4443 29.3987 36.4443 29.1493C36.4443 28.7134 37.0371 28.37 37.9411 28.37C38.705 28.37 39.0792 28.7288 39.0792 29.3525V31.0203C39.0792 31.2698 39.11 31.3791 39.2656 31.3791C39.3595 31.3791 39.452 31.3174 39.5305 31.239L39.609 31.3006C39.5305 31.4408 39.2193 31.7365 38.7512 31.7365C38.2831 31.7365 38.1121 31.487 38.0659 31.2067C37.8795 31.487 37.63 31.7365 37.0834 31.7365C36.5368 31.7365 36.2102 31.4085 36.2102 30.9418C36.2102 30.4751 36.4905 30.1934 37.2235 29.9131ZM23.9285 7.20953H32.8367V21.5964H23.9285V7.20953ZM30.8171 28.8059V28.7274L32.2355 28.384V31.3455C32.2355 31.5319 32.2817 31.5487 32.4387 31.5795L32.5634 31.595L32.548 31.6734H30.8493V31.595C30.8956 31.5795 31.0049 31.5795 31.0049 31.5795C31.1142 31.5641 31.1759 31.5487 31.1759 31.3931V29.2418C31.1759 28.946 31.1142 28.8367 30.8171 28.8059ZM31.1128 27.6216C31.1128 27.3259 31.3469 27.0764 31.6734 27.0764C32 27.0764 32.2509 27.3104 32.2509 27.6216C32.2509 27.9327 32.0014 28.1668 31.6734 28.1668C31.3455 28.1668 31.1128 27.9327 31.1128 27.6216ZM25.424 27.1381C26.0322 27.1381 26.3588 27.3413 26.5929 27.3413C26.6713 27.3413 26.7793 27.3259 26.8577 27.295L26.8732 28.3868H26.733L26.3125 27.6076C26.1416 27.4674 25.8921 27.3889 25.487 27.3889C24.7386 27.3889 24.3027 28.2313 24.3027 29.3525C24.3027 30.6307 24.8956 31.3329 25.644 31.3329C26.4541 31.3329 26.7358 31.0049 26.9068 30.8185L27.0161 30.9278C26.7975 31.2712 26.3139 31.7856 25.4422 31.7856C23.9299 31.7856 23.1198 30.897 23.1198 29.5249C23.1198 27.8416 24.227 27.1395 25.4268 27.1395L25.424 27.1381ZM22.0252 31.5655L22.1654 31.5809L22.15 31.6748H20.4359V31.5964L20.6069 31.5809C20.7162 31.5655 20.7624 31.5193 20.7624 31.3945V29.2894C20.7624 29.0399 20.6377 28.9306 20.4345 28.9306C20.185 28.9306 19.9509 29.1493 19.9509 29.3511V31.3777C19.9509 31.5487 20.0126 31.5641 20.1219 31.5809L20.2775 31.5964V31.6748H18.5634V31.5964L18.7666 31.5655C18.8605 31.5501 18.8914 31.5039 18.8914 31.4254V27.7463C18.8914 27.3721 18.7821 27.3413 18.5326 27.2936V27.2151L19.9509 26.8718V28.9446C20.1696 28.6797 20.59 28.384 20.9951 28.384C21.4632 28.384 21.8374 28.6489 21.8374 29.1941V31.3763C21.8374 31.5473 21.8991 31.5473 22.0238 31.5627L22.0252 31.5655ZM21.2334 34.1612C21.2334 34.4569 20.9839 34.7064 20.6559 34.7064C20.328 34.7064 20.0953 34.4723 20.0953 34.1612C20.0953 33.85 20.3294 33.616 20.6559 33.616C20.9825 33.616 21.2334 33.8655 21.2334 34.1612ZM16.3504 28.7596V28.6811L17.7379 27.5739H17.8164V28.4933H18.6111L18.5172 28.7582H17.815V30.8465C17.815 31.1268 17.9706 31.2516 18.1738 31.2516C18.3602 31.2516 18.5634 31.1268 18.7036 31.0175L18.7498 31.1268C18.5788 31.4226 18.1892 31.7351 17.5964 31.7351C17.0035 31.7351 16.7386 31.3455 16.7386 30.9404V28.7582H16.349L16.3504 28.7596ZM12.9727 7.20953H21.8809V21.5964H12.9727V7.20953ZM11.2221 28.37C12.1107 28.3854 12.8115 29.0722 12.8115 30.0687C12.8115 31.0652 12.1107 31.7365 11.2221 31.7365C10.3336 31.7365 9.6328 31.0512 9.6328 30.0533C9.6328 29.0554 10.3504 28.37 11.2221 28.37ZM7.90189 27.1381C8.44709 27.1381 8.83672 27.3721 8.96146 27.3721C9.00771 27.3721 9.0862 27.3567 9.13245 27.3567V28.37H9.00771L8.58725 27.6216C8.46251 27.4814 8.11913 27.4184 7.85424 27.4184C7.38612 27.4184 7.04415 27.6833 7.04415 28.0575C7.04415 28.4317 7.29362 28.6181 8.07288 28.8676C8.99229 29.1633 9.41416 29.5221 9.41416 30.2397C9.41416 31.1591 8.66573 31.7519 7.62158 31.7519C7.07638 31.7519 6.56202 31.5964 6.28031 31.3931V30.3798H6.40505L6.79467 31.2221C7.02873 31.3623 7.26279 31.5025 7.66783 31.5025C8.21303 31.5025 8.51016 31.1437 8.51016 30.7386C8.51016 30.3644 8.22985 30.0841 7.55992 29.8655C6.71759 29.6006 6.25088 29.2263 6.25088 28.4933C6.25088 27.7141 7.03013 27.1366 7.90329 27.1366L7.90189 27.1381ZM10.3518 38.213H8.24667V38.1345L8.49615 38.1037C8.68255 38.0883 8.7302 38.0575 8.7302 37.8542V37.7758L8.65172 34.7204H8.6363L7.35809 38.2593H7.15487L5.9075 34.7526H5.89208L5.84583 37.5123V37.6833C5.84583 38.0575 5.93973 38.1037 6.23546 38.1514V38.2299H5.09741V38.1514C5.39313 38.0897 5.5501 37.965 5.5501 37.5123L5.64401 34.3952V34.2705C5.64401 34.0841 5.58234 33.9117 5.34828 33.8963C5.34828 33.8963 5.22355 33.8809 5.14506 33.8809V33.7715H6.71899L7.65382 36.5929H7.66924L8.69797 33.7715H10.0855V33.85C9.83602 33.8655 9.71128 33.9439 9.71128 34.1149V34.3798L9.83602 37.8402C9.83602 38.0266 9.91451 38.0897 10.1009 38.1051L10.3504 38.1359V38.2144L10.3518 38.213ZM11.787 38.2761C10.8984 38.2761 10.1976 37.5907 10.1976 36.5929C10.1976 35.595 10.9152 34.9096 11.787 34.9096C12.6601 34.925 13.3763 35.6272 13.3763 36.6083C13.3763 37.5893 12.6587 38.2761 11.787 38.2761ZM13.1703 30.911V29.1969C13.1703 28.9012 13.061 28.8073 12.8115 28.7765V28.698L14.2299 28.3546V30.74C14.2299 30.9895 14.3238 31.1296 14.5578 31.1296C14.7134 31.1296 14.7765 31.0988 14.8858 31.0357C15.0259 30.9418 15.0413 30.8802 15.0413 30.7078V29.1955C15.0413 28.8998 14.9474 28.8213 14.6826 28.7751V28.6966L16.1009 28.3532V31.2207C16.1009 31.4394 16.2719 31.4548 16.4289 31.4856V31.5795L15.0568 31.7043V31.1745C14.8381 31.424 14.4177 31.7351 13.9972 31.7351C13.452 31.7351 13.1717 31.3763 13.1717 30.9096L13.1703 30.911ZM19.7365 38.213H18.0224V38.1345L18.178 38.1191C18.2873 38.1037 18.3336 38.0883 18.3336 37.9481V35.8122C18.3336 35.609 18.2242 35.4688 18.0056 35.4688C17.7407 35.4688 17.5067 35.6875 17.5067 35.9047V37.9005C17.5067 38.0715 17.5529 38.0869 17.6776 38.1037L17.8332 38.1191V38.1976H16.1654V38.1191L16.321 38.0883C16.3994 38.0729 16.4611 38.0729 16.4611 37.9019V35.7814C16.4611 35.5011 16.4022 35.3903 16.1472 35.3525C16.1472 35.3609 16.1486 35.3679 16.1486 35.3763C16.1486 35.672 15.9776 35.8753 15.665 35.8753C15.4464 35.8753 15.2908 35.7351 15.2908 35.5473C15.2908 35.4856 15.3062 35.4071 15.3525 35.3441C15.1969 35.3441 14.8381 35.5936 14.8381 35.8584V37.9159C14.8381 38.0715 14.8998 38.1023 15.0245 38.1191L15.1955 38.1345V38.213H13.4492V38.1345L13.5893 38.1191C13.7295 38.1037 13.7758 38.0883 13.7758 37.9005V35.7491C13.7758 35.4534 13.6664 35.3749 13.417 35.3441V35.2656L14.8199 34.9222V35.4366C15.054 35.1254 15.3805 34.9222 15.6776 34.9222C15.9159 34.9222 16.0855 35.047 16.1317 35.2572L17.5011 34.9222V35.4828C17.7659 35.2334 18.0939 34.9222 18.5606 34.9222C19.1381 34.9222 19.4029 35.2656 19.4029 35.7323V37.9145C19.4029 38.0701 19.4646 38.0855 19.5739 38.1009L19.7295 38.1163V38.2102L19.7365 38.213ZM21.5291 38.213H19.8304V38.1345C19.8921 38.1191 19.986 38.1191 19.986 38.1191C20.0953 38.1037 20.157 38.0883 20.157 37.9327V35.7814C20.157 35.4856 20.0785 35.3763 19.7982 35.3455V35.267L21.2165 34.9236V37.8851C21.2165 38.0883 21.2628 38.1037 21.4198 38.1191L21.5445 38.1345L21.5291 38.213ZM23.4618 35.4394C23.1815 35.4394 22.9629 35.6734 22.9629 35.9075V37.9033C22.9629 38.0743 23.0091 38.0897 23.1338 38.1065L23.2894 38.1219V38.2004H21.6216V38.1219L21.7772 38.0911C21.8556 38.0757 21.9173 38.0757 21.9173 37.9047V35.7842C21.9173 35.4884 21.8556 35.3945 21.5585 35.3483V35.2698L22.9615 34.9264V35.487C23.2263 35.2376 23.5543 34.9264 24.021 34.9264C24.5985 34.9264 24.8633 35.2698 24.8633 35.7365V37.9187C24.8633 38.0743 24.925 38.0897 25.0343 38.1051L25.1745 38.1205V38.2144H23.4758V38.1359L23.6314 38.1205C23.7407 38.1051 23.787 38.0897 23.787 37.9495V35.8136C23.787 35.6104 23.6776 35.4394 23.459 35.4394H23.4618ZM28.0757 36.0617C28.0757 36.747 27.4366 37.2151 26.6573 37.2151C26.4709 37.2151 26.2677 37.1843 26.1121 37.1535C26.0813 37.1997 26.0659 37.2628 26.0659 37.3245C26.0659 37.4029 26.2214 37.4646 26.3938 37.4954L27.3132 37.6664C28.1233 37.822 28.4667 38.0406 28.4667 38.555C28.4667 39.2249 27.5781 39.6468 26.6279 39.6468C25.7547 39.6468 24.9909 39.4912 24.9909 39.0077C24.9909 38.6027 25.4268 38.4303 25.801 38.3378C25.5053 38.213 25.4114 37.9636 25.4114 37.7926C25.4114 37.4492 25.6762 37.2782 25.9411 37.0904C25.5053 36.904 25.2558 36.5452 25.2558 36.0771C25.2558 35.3917 25.8949 34.9082 26.6741 34.9082C26.9853 34.9082 27.1731 34.9699 27.3132 35.0329L28.4975 35.0021L28.2943 35.3917L27.7645 35.3609C27.9355 35.5165 28.0757 35.7351 28.0757 36.0631V36.0617ZM29.0091 28.9306C28.7596 28.9306 28.5256 29.1493 28.5256 29.3511V31.3777C28.5256 31.5487 28.5872 31.5641 28.6966 31.5809L28.8521 31.5964V31.6748H27.1381V31.5964L27.3245 31.5655C27.4184 31.5501 27.4492 31.5039 27.4492 31.4254V27.7463C27.4492 27.3721 27.3399 27.3413 27.0904 27.2936V27.2151L28.5088 26.8718V28.9446C28.7274 28.6797 29.1479 28.384 29.5529 28.384C30.021 28.384 30.3952 28.6489 30.3952 29.1941V31.3763C30.3952 31.5473 30.4569 31.5473 30.5816 31.5627L30.7218 31.5781V31.672H29.0077V31.5936L29.1787 31.5781C29.288 31.5627 29.3343 31.5165 29.3343 31.3917V29.2866C29.3343 29.0371 29.2095 28.9278 29.0063 28.9278L29.0091 28.9306ZM31.3034 38.1037L31.4898 38.1191V38.213H29.4015V38.1191L29.6664 38.0883C29.8374 38.0729 29.8851 38.0266 29.8851 37.8697V34.2214C29.8851 33.9566 29.7449 33.9103 29.4015 33.8626V33.7687H31.2095C32.4723 33.7687 33.1731 34.0645 33.1731 34.9853C33.1731 35.7954 32.4092 36.2481 31.3959 36.2481C31.2404 36.2481 31.1619 36.2481 30.9755 36.2327V37.8542C30.9755 37.9944 31.0371 38.0729 31.3034 38.1037ZM34.5144 38.2761C33.6258 38.2761 32.925 37.5907 32.925 36.5929C32.925 35.595 33.6426 34.9096 34.5144 34.9096C35.4029 34.925 36.1037 35.6272 36.1037 36.6083C36.1037 37.5893 35.3861 38.2761 34.5144 38.2761ZM36.2256 31.6748H34.5116V31.5964L34.6826 31.5809C34.7919 31.5655 34.8381 31.5501 34.8381 31.41V29.274C34.8381 29.0708 34.7288 28.9306 34.5102 28.9306C34.2453 28.9306 34.0266 29.1493 34.0266 29.3665V31.3623C34.0266 31.5333 34.0729 31.5487 34.1976 31.5655L34.3532 31.5809V31.6594H32.6699V31.5809L32.8255 31.5501C32.904 31.5347 32.9657 31.5347 32.9657 31.3637V29.2277C32.9657 28.932 32.904 28.8381 32.6069 28.7919V28.7134L34.0098 28.37V28.9306C34.2747 28.6811 34.6027 28.37 35.0694 28.37C35.6468 28.37 35.9117 28.7288 35.9117 29.1801V31.3623C35.9117 31.5179 35.9734 31.5333 36.0827 31.5487L36.2383 31.5641L36.2228 31.6734L36.2256 31.6748ZM37.4912 38.2761C36.8059 38.2761 36.5242 38.0897 36.384 38.0266V37.1843H36.4625L36.8367 37.8865C36.9923 37.9958 37.2726 38.0897 37.5067 38.0897C37.8809 38.0897 38.1303 37.9033 38.1303 37.5907C38.1303 37.2474 37.7099 37.1381 37.2726 36.9979C36.7891 36.8269 36.3532 36.562 36.3532 36C36.3532 35.3146 36.9615 34.925 37.6468 34.925C38.2242 34.925 38.4891 35.1437 38.6447 35.096V35.9061H38.5662L38.192 35.2978C38.0673 35.2039 37.864 35.1268 37.6468 35.1268C37.2109 35.1268 37.0077 35.2824 37.0077 35.5473C37.0077 35.843 37.4128 35.9523 37.8655 36.1247C38.4261 36.2957 38.8942 36.5144 38.8942 37.1381C38.8942 37.8402 38.2705 38.2761 37.4912 38.2761ZM40.1416 38.2915C39.5641 38.2915 39.2838 37.9019 39.2838 37.4968V35.2992H38.8942V35.2207L40.2817 34.1135H40.3602V35.0329H41.1549L41.061 35.2978H40.3588V37.4029C40.3588 37.6833 40.5144 37.7926 40.7176 37.7926C40.904 37.7926 41.061 37.6833 41.2165 37.5585L41.295 37.6678C41.124 37.9636 40.7498 38.2915 40.1416 38.2915Z" fill="var(--fill-0, #792323)"/>
<path id="Vector_8" d="M37.6127 31.2865C37.8313 31.2865 38.0332 31.0216 38.0332 30.8338V29.7266C37.7374 30.0854 37.2539 30.1008 37.2539 30.8338C37.2539 31.0987 37.3786 31.2865 37.6127 31.2865Z" fill="var(--fill-0, #792323)"/>
</g>
<defs>
<clipPath id="clip0_0_14">
<rect width="46" height="46" fill="white"/>
</clipPath>
</defs>
</svg>
