<svg preserveAspectRatio="none" width="100%" height="100%" overflow="visible" style="display: block;" viewBox="0 0 28 28" fill="none" xmlns="http://www.w3.org/2000/svg">
<g id="Model Alt Streamline Carbon" clip-path="url(#clip0_0_67)">
<path id="Vector" d="M24.8914 14.0923L20.125 11.7091V6.125C20.125 5.9625 20.0798 5.8032 19.9944 5.66496C19.909 5.52672 19.7867 5.415 19.6414 5.34231L14.3914 2.71731C14.2699 2.65659 14.1359 2.62498 14 2.62498C13.8641 2.62498 13.7301 2.65659 13.6086 2.71731L8.35861 5.34231C8.21327 5.415 8.09105 5.52672 8.00563 5.66496C7.92021 5.8032 7.87498 5.9625 7.875 6.125V11.7091L3.10861 14.0923C2.96327 14.165 2.84105 14.2767 2.75563 14.415C2.67021 14.5532 2.62498 14.7125 2.625 14.875V21C2.62498 21.1625 2.67021 21.3218 2.75563 21.46C2.84105 21.5983 2.96327 21.71 3.10861 21.7827L8.35861 24.4077C8.48015 24.4684 8.61414 24.5 8.75 24.5C8.88586 24.5 9.01985 24.4684 9.14139 24.4077L14 21.9784L18.8586 24.4077C18.9801 24.4684 19.1141 24.5 19.25 24.5C19.3859 24.5 19.5199 24.4684 19.6414 24.4077L24.8914 21.7827C25.0367 21.71 25.159 21.5983 25.2444 21.46C25.3298 21.3218 25.375 21.1625 25.375 21V14.875C25.375 14.7125 25.3298 14.5532 25.2444 14.415C25.159 14.2767 25.0367 14.165 24.8914 14.0923ZM18.375 11.7091L14.875 13.4591V9.29093L18.375 7.54093V11.7091ZM14 4.47843L17.2932 6.125L14 7.77158L10.7068 6.125L14 4.47843ZM9.625 7.54093L13.125 9.29093V13.4591L9.625 11.7091V7.54093ZM7.875 22.2091L4.375 20.4591V16.2909L7.875 18.0409V22.2091ZM8.75 16.5216L5.45676 14.875L8.75 13.2284L12.0432 14.875L8.75 16.5216ZM9.625 18.0409L13.125 16.2909V20.4591L9.625 22.2091V18.0409ZM18.375 22.2091L14.875 20.4591V16.2909L18.375 18.0409V22.2091ZM19.25 16.5216L15.9568 14.875L19.25 13.2284L22.5432 14.875L19.25 16.5216ZM23.625 20.4591L20.125 22.2091V18.0409L23.625 16.2909V20.4591Z" fill="var(--fill-0, white)"/>
<g id="_Transparent_Rectangle_">
</g>
</g>
<defs>
<clipPath id="clip0_0_67">
<rect width="28" height="28" fill="white"/>
</clipPath>
</defs>
</svg>
