<svg preserveAspectRatio="none" width="100%" height="100%" overflow="visible" style="display: block;" viewBox="0 0 12.25 12.25" fill="none" xmlns="http://www.w3.org/2000/svg">
<path id="Vector" d="M12.25 7V5.25H10.4125C10.325 4.725 10.0625 4.2 9.8 3.675L11.1125 2.3625L9.8875 1.1375L8.575 2.45C8.1375 2.1875 7.6125 1.925 7 1.8375V0H5.25V1.8375C4.725 1.925 4.2 2.1875 3.675 2.45L2.3625 1.1375L1.1375 2.3625L2.45 3.675C2.1875 4.1125 1.925 4.6375 1.8375 5.25H0V7H1.8375C1.925 7.525 2.1875 8.05 2.45 8.575L1.1375 9.8875L2.3625 11.1125L3.675 9.8C4.1125 10.0625 4.6375 10.325 5.25 10.4125V12.25H7V10.4125C7.525 10.325 8.05 10.0625 8.575 9.8L9.8875 11.1125L11.1125 9.8875L9.8 8.575C10.0625 8.1375 10.325 7.6125 10.4125 7H12.25ZM6.125 8.75C4.6375 8.75 3.5 7.6125 3.5 6.125C3.5 4.6375 4.6375 3.5 6.125 3.5C7.6125 3.5 8.75 4.6375 8.75 6.125C8.75 7.6125 7.6125 8.75 6.125 8.75Z" fill="var(--fill-0, #84181F)"/>
</svg>
