<svg preserveAspectRatio="none" width="100%" height="100%" overflow="visible" style="display: block;" viewBox="0 0 46 46" fill="none" xmlns="http://www.w3.org/2000/svg">
<g id="Globe Streamline Carbon">
<rect width="46" height="46" fill="#F0E8E8"/>
<path id="Vector" d="M34.2246 11.7772C33.5581 11.1405 32.6718 10.7852 31.75 10.7852C30.8282 10.7852 29.9419 11.1405 29.2754 11.7772L12.5438 28.5073C11.9733 29.0747 11.521 29.7496 11.2131 30.4929C10.9052 31.2362 10.7478 32.0333 10.75 32.8379V35.2518H13.1614C13.9661 35.2541 14.7633 35.0968 15.5068 34.7889C16.2503 34.481 16.9253 34.0287 17.4927 33.458L34.2246 16.7268C34.5497 16.4019 34.8076 16.0161 34.9835 15.5914C35.1595 15.1668 35.25 14.7117 35.25 14.252C35.25 13.7924 35.1595 13.3372 34.9835 12.9126C34.8076 12.488 34.5497 12.1022 34.2246 11.7772ZM18.5463 24.9793L21.0213 27.4543L19.1651 29.3106L16.69 26.8359L18.5463 24.9793ZM16.2551 32.2205C15.8498 32.628 15.3677 32.9511 14.8366 33.1711C14.3056 33.391 13.7362 33.5034 13.1614 33.5018H12.5V32.8379C12.4985 32.2632 12.6109 31.6939 12.8309 31.1629C13.0508 30.632 13.3739 30.1499 13.7814 29.7446L15.4526 28.0734L17.9276 30.548L16.2551 32.2205ZM32.9874 15.4891L22.2587 26.2172L19.7837 23.7422L30.5127 13.0147C30.846 12.6964 31.2891 12.5187 31.75 12.5187C32.2109 12.5187 32.6541 12.6964 32.9874 13.0147C33.1499 13.1772 33.2788 13.3701 33.3668 13.5824C33.4547 13.7947 33.5 14.0223 33.5 14.2521C33.5 14.4819 33.4547 14.7094 33.3668 14.9217C33.2788 15.134 33.1499 15.3267 32.9874 15.4891Z" fill="var(--fill-0, #84181F)"/>
<path id="Vector_2" d="M21.25 10.75C20.7089 10.7516 20.1816 10.9207 19.7405 11.2341C19.2993 11.5474 18.966 11.9896 18.7863 12.5H15.8387C15.6919 12.0823 15.4416 11.7087 15.1112 11.414C14.7808 11.1194 14.3811 10.9133 13.9494 10.8151C13.5177 10.7169 13.0682 10.7297 12.6428 10.8524C12.2174 10.9751 11.8301 11.2036 11.517 11.5167C11.2039 11.8297 10.9754 12.217 10.8526 12.6424C10.7299 13.0677 10.717 13.5173 10.8152 13.949C10.9134 14.3807 11.1195 14.7804 11.4141 15.1109C11.7087 15.4413 12.0823 15.6916 12.5 15.8385V18.7861C11.9162 18.9925 11.4241 19.3987 11.1108 19.9328C10.7975 20.4669 10.6831 21.0946 10.7878 21.7049C10.8925 22.3152 11.2096 22.8688 11.6831 23.2679C12.1565 23.6671 12.7558 23.886 13.375 23.886C13.9942 23.886 14.5935 23.6671 15.067 23.2679C15.5404 22.8688 15.8575 22.3152 15.9622 21.7049C16.0669 21.0946 15.9525 20.4669 15.6392 19.9328C15.3259 19.3987 14.8338 18.9925 14.25 18.7861V15.8389C14.616 15.7084 14.9485 15.4981 15.2232 15.2233C15.498 14.9485 15.7083 14.6161 15.8387 14.25H18.7863C18.9475 14.7024 19.23 15.1019 19.6029 15.4046C19.9758 15.7074 20.4247 15.9018 20.9006 15.9667C21.3765 16.0316 21.8611 15.9644 22.3014 15.7725C22.7417 15.5807 23.1208 15.2714 23.3973 14.8787C23.6738 14.4859 23.837 14.0247 23.8691 13.5455C23.9012 13.0663 23.8009 12.5874 23.5793 12.1613C23.3577 11.7352 23.0232 11.3781 22.6124 11.1293C22.2016 10.8804 21.7303 10.7492 21.25 10.75ZM13.375 22.125C13.2019 22.125 13.0328 22.0737 12.8889 21.9775C12.745 21.8814 12.6328 21.7447 12.5666 21.5849C12.5004 21.425 12.4831 21.249 12.5168 21.0793C12.5506 20.9096 12.6339 20.7537 12.7563 20.6313C12.8787 20.5089 13.0346 20.4256 13.2043 20.3918C13.374 20.3581 13.55 20.3754 13.7099 20.4416C13.8697 20.5078 14.0064 20.62 14.1025 20.7639C14.1987 20.9078 14.25 21.0769 14.25 21.25C14.2498 21.482 14.1576 21.7045 13.9935 21.8685C13.8295 22.0326 13.607 22.1248 13.375 22.125ZM13.375 14.25C13.2019 14.25 13.0328 14.1987 12.8889 14.1025C12.745 14.0064 12.6328 13.8697 12.5666 13.7099C12.5004 13.55 12.4831 13.374 12.5168 13.2043C12.5506 13.0346 12.6339 12.8787 12.7563 12.7563C12.8787 12.6339 13.0346 12.5506 13.2043 12.5168C13.374 12.4831 13.55 12.5004 13.7099 12.5666C13.8697 12.6328 14.0064 12.745 14.1025 12.8889C14.1987 13.0328 14.25 13.2019 14.25 13.375C14.2498 13.607 14.1576 13.8295 13.9935 13.9935C13.8295 14.1576 13.607 14.2498 13.375 14.25ZM21.25 14.25C21.0769 14.25 20.9078 14.1987 20.7639 14.1025C20.62 14.0064 20.5078 13.8697 20.4416 13.7099C20.3754 13.55 20.3581 13.374 20.3918 13.2043C20.4256 13.0346 20.5089 12.8787 20.6313 12.7563C20.7537 12.6339 20.9096 12.5506 21.0793 12.5168C21.249 12.4831 21.425 12.5004 21.5849 12.5666C21.7447 12.6328 21.8814 12.745 21.9775 12.8889C22.0737 13.0328 22.125 13.2019 22.125 13.375C22.1248 13.607 22.0326 13.8295 21.8685 13.9935C21.7045 14.1576 21.482 14.2498 21.25 14.25Z" fill="var(--fill-0, #84181F)"/>
<g id="_Transparent_Rectangle">
</g>
</g>
</svg>
