<svg preserveAspectRatio="none" width="100%" height="100%" overflow="visible" style="display: block;" viewBox="0 0 14.9986 14.9986" fill="none" xmlns="http://www.w3.org/2000/svg">
<g id="dots.svg" clip-path="url(#clip0_0_56)">
<path id="Vector" d="M14.0612 0.000206354C14.5789 0.000206376 14.9986 0.4199 14.9986 0.937619V1.40632C14.9986 1.92404 14.5789 2.34374 14.0612 2.34374H13.5925C13.0748 2.34374 12.6551 1.92404 12.6551 1.40632V0.937619C12.6551 0.4199 13.0748 0.000206311 13.5925 0.000206333L14.0612 0.000206354Z" fill="var(--fill-0, #D8BFC0)"/>
<path id="Vector_2" d="M9.84288 0.000206354C10.3606 0.000206376 10.7803 0.4199 10.7803 0.937619V1.40632C10.7803 1.92405 10.3606 2.34374 9.84288 2.34374H9.37418C8.85647 2.34374 8.43676 1.92405 8.43676 1.40632V0.937619C8.43676 0.4199 8.85647 0.000206311 9.37418 0.000206333L9.84288 0.000206354Z" fill="var(--fill-0, #D8BFC0)"/>
<path id="Vector_3" d="M5.62487 2.04875e-08C6.14259 4.31178e-08 6.56228 0.419694 6.56228 0.937413V1.40612C6.56228 1.92384 6.14259 2.34353 5.62487 2.34353H5.15616C4.63844 2.34353 4.21875 1.92384 4.21875 1.40612V0.937413C4.21875 0.419694 4.63844 -2.26304e-08 5.15616 0L5.62487 2.04875e-08Z" fill="var(--fill-0, #D8BFC0)"/>
<path id="Vector_4" d="M1.40616 0.000238479C1.92388 0.000238502 2.34358 0.419932 2.34358 0.937651V1.40636C2.34358 1.92408 1.92388 2.34377 1.40616 2.34377H0.937458C0.41974 2.34377 4.60039e-05 1.92408 4.60265e-05 1.40636L4.6047e-05 0.937651C4.60696e-05 0.419932 0.41974 0.000238436 0.937458 0.000238459L1.40616 0.000238479Z" fill="var(--fill-0, #D8BFC0)"/>
<path id="Vector_5" d="M14.0612 4.21896C14.5789 4.21896 14.9986 4.63865 14.9986 5.15637V5.62507C14.9986 6.1428 14.5789 6.56249 14.0612 6.56249H13.5925C13.0748 6.56249 12.6551 6.1428 12.6551 5.62507V5.15637C12.6551 4.63865 13.0748 4.21896 13.5925 4.21896H14.0612Z" fill="var(--fill-0, #D8BFC0)"/>
<path id="Vector_6" d="M9.84288 4.21896C10.3606 4.21896 10.7803 4.63865 10.7803 5.15637V5.62507C10.7803 6.1428 10.3606 6.56249 9.84288 6.56249H9.37418C8.85647 6.56249 8.43676 6.1428 8.43676 5.62507V5.15637C8.43676 4.63865 8.85647 4.21896 9.37418 4.21896H9.84288Z" fill="var(--fill-0, #D8BFC0)"/>
<path id="Vector_7" d="M14.0614 8.4375C14.5791 8.4375 14.9988 8.85721 14.9988 9.37491V9.84362C14.9988 10.3613 14.5791 10.781 14.0614 10.781H13.5927C13.075 10.781 12.6553 10.3613 12.6553 9.84362V9.37491C12.6553 8.85721 13.075 8.4375 13.5927 8.4375H14.0614Z" fill="var(--fill-0, #D8BFC0)"/>
<path id="Vector_8" d="M14.0614 12.6562C14.5791 12.6562 14.9988 13.076 14.9988 13.5937V14.0624C14.9988 14.5801 14.5791 14.9998 14.0614 14.9998H13.5927C13.075 14.9998 12.6553 14.5801 12.6553 14.0624V13.5937C12.6553 13.076 13.075 12.6562 13.5927 12.6562H14.0614Z" fill="var(--fill-0, #D8BFC0)"/>
</g>
<defs>
<clipPath id="clip0_0_56">
<rect width="14.9986" height="14.9986" fill="white"/>
</clipPath>
</defs>
</svg>
