<svg preserveAspectRatio="none" width="100%" height="100%" overflow="visible" style="display: block;" viewBox="0 0 1049.77 65.2164" fill="none" xmlns="http://www.w3.org/2000/svg">
<path id="Vector" d="M0.491064 0V65.2164M14.4749 0V65.2164M28.4587 0V65.2164M42.4425 0V65.2164M56.4263 0V65.2164M70.4101 0V65.2164M84.394 0V65.2164M98.3778 0V65.2164M112.362 0V65.2164M126.345 0V65.2164M140.329 0V65.2164M154.313 0V65.2164M168.297 0V65.2164M182.281 0V65.2164M196.265 0V65.2164M210.248 0V65.2164M224.232 0V65.2164M238.216 0V65.2164M252.2 0V65.2164M266.184 0V65.2164M280.167 0V65.2164M294.151 0V65.2164M308.135 0V65.2164M322.119 0V65.2164M336.103 0V65.2164M350.086 0V65.2164M364.07 0V65.2164M378.054 0V65.2164M392.038 0V65.2164M406.022 0V65.2164M420.006 0V65.2164M433.989 0V65.2164M447.973 0V65.2164M461.957 0V65.2164M475.941 0V65.2164M489.925 0V65.2164M503.908 0V65.2164M517.892 0V65.2164M531.876 0V65.2164M545.86 0V65.2164M559.844 0V65.2164M573.828 0V65.2164M587.811 0V65.2164M601.795 0V65.2164M615.779 0V65.2164M629.763 0V65.2164M643.747 0V65.2164M657.73 0V65.2164M671.714 0V65.2164M685.698 0V65.2164M699.682 0V65.2164M713.666 0V65.2164M727.65 0V65.2164M741.633 0V65.2164M755.617 0V65.2164M769.601 0V65.2164M783.585 0V65.2164M797.569 0V65.2164M811.552 0V65.2164M825.536 0V65.2164M839.52 0V65.2164M853.504 0V65.2164M867.488 0V65.2164M881.471 0V65.2164M895.455 0V65.2164M909.439 0V65.2164M923.423 0V65.2164M937.407 0V65.2164M951.391 0V65.2164M965.374 0V65.2164M979.358 0V65.2164M993.342 0V65.2164M1007.33 0V65.2164M1021.31 0V65.2164M1035.29 0V65.2164M1049.28 0V65.2164" stroke="var(--stroke-0, #E3DFDF)" stroke-width="0.982128"/>
</svg>
