<svg preserveAspectRatio="none" width="100%" height="100%" overflow="visible" style="display: block;" viewBox="0 0 25 25" fill="none" xmlns="http://www.w3.org/2000/svg">
<g id="SVG">
<path id="Vector" d="M20.5151 3.39844H5.08247C4.37533 3.39844 3.80078 3.98103 3.80078 4.69621V20.1007C3.80078 20.8159 4.37533 21.3984 5.08247 21.3984H20.5151C21.2222 21.3984 21.8008 20.8159 21.8008 20.1007V4.69621C21.8008 3.98103 21.2222 3.39844 20.5151 3.39844ZM9.24095 18.827H6.5731V10.2368H9.24497V18.827H9.24095ZM7.90703 9.06362C7.05122 9.06362 6.36015 8.36853 6.36015 7.51674C6.36015 6.66496 7.05122 5.96987 7.90703 5.96987C8.75881 5.96987 9.4539 6.66496 9.4539 7.51674C9.4539 8.37255 8.76283 9.06362 7.90703 9.06362ZM19.2414 18.827H16.5735V14.6484C16.5735 13.652 16.5535 12.3703 15.1874 12.3703C13.7972 12.3703 13.5843 13.4551 13.5843 14.5761V18.827H10.9164V10.2368H13.4758V11.41H13.5119C13.8695 10.735 14.7414 10.0239 16.0392 10.0239C18.7392 10.0239 19.2414 11.8038 19.2414 14.1181V18.827Z" fill="var(--fill-0, #84181F)"/>
</g>
</svg>
