<svg preserveAspectRatio="none" width="100%" height="100%" overflow="visible" style="display: block;" viewBox="0 0 23.8252 13.65" fill="none" xmlns="http://www.w3.org/2000/svg">
<g id="Frame 1000003036">
<path id="Vector" fill-rule="evenodd" clip-rule="evenodd" d="M6.825 0C3.05565 0 0 3.05565 0 6.825C0 10.5939 3.05492 13.6492 6.8236 13.65H6.8264C10.5951 13.6492 13.65 10.5939 13.65 6.825C13.65 3.05565 10.5944 0 6.825 0ZM1.18019 5.6C1.09491 5.9948 1.05 6.40465 1.05 6.825C1.05 7.24535 1.09491 7.6552 1.18019 8.05H3.58056C3.52867 7.65324 3.5 7.24381 3.5 6.825C3.5 6.40619 3.52867 5.99676 3.58056 5.6H1.18019ZM1.51537 4.55H3.776C3.99902 3.62731 4.33497 2.80125 4.70002 2.12176C4.86685 1.81122 5.04171 1.52763 5.21753 1.27667C3.54917 1.75918 2.19162 2.9738 1.51537 4.55ZM4.64064 5.6C4.58252 5.99571 4.55 6.40549 4.55 6.825C4.55 7.24451 4.58252 7.65429 4.64064 8.05H9.00935C9.06745 7.65429 9.1 7.24451 9.1 6.825C9.1 6.40549 9.06745 5.99571 9.00935 5.6H4.64064ZM8.79011 4.55H4.85987C5.05702 3.8229 5.33013 3.16752 5.62499 2.61869C5.91479 2.07929 6.21824 1.65652 6.47731 1.37686C6.60758 1.23628 6.71664 1.14265 6.79728 1.08823C6.80764 1.08128 6.81681 1.07537 6.825 1.07038C6.83319 1.07537 6.84236 1.08128 6.85272 1.08823C6.93336 1.14265 7.04242 1.23628 7.17269 1.37686C7.43176 1.65652 7.73521 2.07929 8.02501 2.61869C8.31985 3.16752 8.59299 3.8229 8.79011 4.55ZM10.0694 5.6C10.1213 5.99676 10.15 6.40619 10.15 6.825C10.15 7.24381 10.1213 7.65324 10.0694 8.05H12.4698C12.5551 7.6552 12.6 7.24535 12.6 6.825C12.6 6.40465 12.5551 5.9948 12.4698 5.6H10.0694ZM12.1346 4.55H9.87399C9.65097 3.62731 9.31504 2.80125 8.94999 2.12176C8.78318 1.81122 8.60825 1.52763 8.43248 1.27667C10.1009 1.75918 11.4584 2.9738 12.1346 4.55ZM5.21753 12.3733C3.54917 11.8908 2.19162 10.6762 1.51537 9.1H3.776C3.99902 10.0227 4.33497 10.8487 4.70002 11.5282C4.86685 11.8388 5.04171 12.1224 5.21753 12.3733ZM5.62499 11.0313C5.33013 10.4825 5.05702 9.82709 4.85987 9.1H8.79011C8.59299 9.82709 8.31985 10.4825 8.02501 11.0313C7.73521 11.5707 7.43176 11.9934 7.17269 12.2732C7.04242 12.4137 6.93336 12.5073 6.85272 12.5618C6.84236 12.5687 6.83319 12.5747 6.825 12.5796C6.81681 12.5747 6.80764 12.5687 6.79728 12.5618C6.71664 12.5073 6.60758 12.4137 6.47731 12.2732C6.21824 11.9934 5.91479 11.5707 5.62499 11.0313ZM8.94999 11.5282C9.31504 10.8487 9.65097 10.0227 9.87399 9.1H12.1346C11.4584 10.6762 10.1009 11.8908 8.43248 12.3733C8.60825 12.1224 8.78318 11.8388 8.94999 11.5282Z" fill="var(--fill-0, #84181F)"/>
<path id="Polygon 1" d="M21.8252 8.82422L23.5572 5.82422H20.0931L21.8252 8.82422Z" fill="var(--fill-0, #84181F)"/>
</g>
</svg>
