<svg preserveAspectRatio="none" width="100%" height="100%" overflow="visible" style="display: block;" viewBox="0 0 28 28" fill="none" xmlns="http://www.w3.org/2000/svg">
<g id="Interactive Segmentation Cursor Streamline Carbon" clip-path="url(#clip0_0_44)">
<path id="Vector" d="M25.7371 21.0004L13.999 9.24594C13.6657 8.92762 13.2226 8.75 12.7617 8.75C12.3008 8.75 11.8577 8.92762 11.5244 9.24594L9.26168 11.5087C8.93401 11.8371 8.75 12.2821 8.75 12.7461C8.75 13.21 8.93401 13.655 9.26168 13.9835L20.999 25.7381C21.3274 26.0658 21.7724 26.2498 22.2363 26.2498C22.7002 26.2498 23.1452 26.0658 23.4736 25.7381L25.7371 23.4749C25.8997 23.3125 26.0287 23.1196 26.1166 22.9073C26.2046 22.6949 26.2499 22.4674 26.2499 22.2375C26.2499 22.0077 26.2046 21.7802 26.1166 21.5678C26.0287 21.3555 25.8997 21.1629 25.7371 21.0004ZM10.499 12.7461L12.7617 10.4835L15.8242 13.546L13.5607 15.8096L10.4982 12.7471L10.499 12.7461ZM22.2364 24.5004L14.7981 17.0465L17.0614 14.7829L24.5 22.2379L22.2364 24.5004Z" fill="var(--fill-0, white)"/>
<path id="Vector_2" d="M6.12502 17.5L7.875 15.75L9.62498 17.5L7.875 19.25L6.12502 17.5Z" fill="var(--fill-0, white)"/>
<path id="Vector_3" d="M15.75 7.875L17.5 6.12502L19.25 7.875L17.5 9.62498L15.75 7.875Z" fill="var(--fill-0, white)"/>
<path id="Vector_4" d="M6.12502 7.875L7.875 6.12502L9.62498 7.875L7.875 9.62498L6.12502 7.875Z" fill="var(--fill-0, white)"/>
<path id="Vector_5" d="M9.625 1.75H1.75V9.625H3.5V3.5H9.625V1.75Z" fill="var(--fill-0, white)"/>
<g id="_Transparent_Rectangle_">
</g>
</g>
<defs>
<clipPath id="clip0_0_44">
<rect width="28" height="28" fill="white"/>
</clipPath>
</defs>
</svg>
