<svg preserveAspectRatio="none" width="100%" height="100%" overflow="visible" style="display: block;" viewBox="0 0 14.9986 14.9986" fill="none" xmlns="http://www.w3.org/2000/svg">
<g id="dots.svg" clip-path="url(#clip0_0_19)">
<path id="Vector" d="M14.0624 2.04878e-08C14.5801 4.3118e-08 14.9998 0.419694 14.9998 0.937412V1.40612C14.9998 1.92384 14.5801 2.34353 14.0624 2.34353H13.5937C13.076 2.34353 12.6562 1.92384 12.6562 1.40612V0.937412C12.6562 0.419694 13.076 -2.263e-08 13.5937 0L14.0624 2.04878e-08Z" fill="var(--fill-0, #D8BFC0)"/>
<path id="Vector_2" d="M9.84362 2.04874e-08C10.3613 4.31178e-08 10.781 0.419694 10.781 0.937412V1.40612C10.781 1.92384 10.3613 2.34353 9.84362 2.34353H9.37491C8.85721 2.34353 8.4375 1.92384 8.4375 1.40612V0.937412C8.4375 0.419693 8.85721 -2.26304e-08 9.37491 0L9.84362 2.04874e-08Z" fill="var(--fill-0, #D8BFC0)"/>
<path id="Vector_3" d="M5.62506 3.24234e-07C6.14278 3.46864e-07 6.56247 0.419694 6.56247 0.937413V1.40612C6.56247 1.92384 6.14278 2.34353 5.62506 2.34353H5.15635C4.63863 2.34353 4.21894 1.92384 4.21894 1.40612V0.937413C4.21894 0.419694 4.63863 2.81116e-07 5.15635 3.03746e-07L5.62506 3.24234e-07Z" fill="var(--fill-0, #D8BFC0)"/>
<path id="Vector_4" d="M1.40631 3.24234e-07C1.92403 3.46864e-07 2.34372 0.419694 2.34372 0.937413V1.40612C2.34372 1.92384 1.92403 2.34353 1.40631 2.34353H0.937602C0.419883 2.34353 0.000189301 1.92384 0.000189323 1.40612L0.000189344 0.937413C0.000189366 0.419694 0.419883 2.81115e-07 0.937602 3.03746e-07L1.40631 3.24234e-07Z" fill="var(--fill-0, #D8BFC0)"/>
<path id="Vector_5" d="M14.0624 4.21875C14.5801 4.21875 14.9998 4.63844 14.9998 5.15616V5.62487C14.9998 6.14259 14.5801 6.56228 14.0624 6.56228H13.5937C13.076 6.56228 12.6562 6.14259 12.6562 5.62487V5.15616C12.6562 4.63844 13.076 4.21875 13.5937 4.21875H14.0624Z" fill="var(--fill-0, #D8BFC0)"/>
<path id="Vector_6" d="M9.84362 4.21875C10.3613 4.21875 10.781 4.63844 10.781 5.15616V5.62487C10.781 6.14259 10.3613 6.56228 9.84362 6.56228H9.37491C8.85721 6.56228 8.4375 6.14259 8.4375 5.62487V5.15616C8.4375 4.63844 8.85721 4.21875 9.37491 4.21875H9.84362Z" fill="var(--fill-0, #D8BFC0)"/>
<path id="Vector_7" d="M14.0624 8.43652C14.5801 8.43652 14.9998 8.85623 14.9998 9.37394V9.84264C14.9998 10.3603 14.5801 10.7801 14.0624 10.7801H13.5937C13.076 10.7801 12.6562 10.3603 12.6562 9.84264V9.37394C12.6562 8.85623 13.076 8.43652 13.5937 8.43652H14.0624Z" fill="var(--fill-0, #D8BFC0)"/>
<path id="Vector_8" d="M14.0624 12.6553C14.5801 12.6553 14.9998 13.075 14.9998 13.5927V14.0614C14.9998 14.5791 14.5801 14.9988 14.0624 14.9988H13.5937C13.076 14.9988 12.6562 14.5791 12.6562 14.0614V13.5927C12.6562 13.075 13.076 12.6553 13.5937 12.6553H14.0624Z" fill="var(--fill-0, #D8BFC0)"/>
</g>
<defs>
<clipPath id="clip0_0_19">
<rect width="14.9986" height="14.9986" fill="white"/>
</clipPath>
</defs>
</svg>
