<svg preserveAspectRatio="none" width="100%" height="100%" overflow="visible" style="display: block;" viewBox="0 0 24 24" fill="none" xmlns="http://www.w3.org/2000/svg">
<g id="SVG">
<path id="Vector" d="M11.8008 2.80078C16.7728 2.80078 20.8008 6.82875 20.8008 11.8008C20.8008 16.7728 16.7728 20.8008 11.8008 20.8008C6.82875 20.7903 2.80078 16.7623 2.80078 11.8008C2.80079 6.82876 6.82876 2.80079 11.8008 2.80078ZM13.459 7.40625C13.3541 7.59499 13.2382 7.8359 13.1543 8.03516C12.2734 7.89888 11.3819 7.89884 10.501 8.03516C10.4066 7.81506 10.3018 7.6054 10.1865 7.40625C9.35789 7.54261 8.55014 7.79475 7.79492 8.15137C6.28458 10.4064 5.875 12.5984 6.07422 14.7695C6.96583 15.4304 7.95228 15.9343 9.01172 16.249C9.25294 15.9239 9.46233 15.588 9.64062 15.2314C9.29452 15.1056 8.96894 14.9486 8.6543 14.7598C8.73821 14.6968 8.81257 14.6332 8.89648 14.5703C10.7531 15.4513 12.9139 15.4514 14.7705 14.5703C14.8544 14.6332 14.9278 14.6968 15.0117 14.7598C14.697 14.9486 14.3608 15.1056 14.0146 15.2314C14.193 15.5881 14.4033 15.9238 14.6445 16.249C15.7039 15.9238 16.7 15.4303 17.5811 14.7695C17.8117 12.2522 17.1617 10.0706 15.8506 8.14062C15.0849 7.79447 14.2877 7.54261 13.459 7.40625ZM9.89258 11.0879C10.4799 11.0879 10.9413 11.6125 10.9414 12.2627C10.9309 12.9025 10.48 13.4267 9.89258 13.4268C9.31565 13.4268 8.85449 12.9026 8.85449 12.2627C8.85459 11.6229 9.31572 11.0879 9.89258 11.0879ZM13.7529 11.0879C14.3402 11.088 14.8014 11.6125 14.791 12.2627C14.7805 12.9129 14.3297 13.4266 13.7529 13.4268C13.176 13.4268 12.7139 12.9026 12.7139 12.2627C12.714 11.6229 13.1761 11.0879 13.7529 11.0879Z" fill="var(--fill-0, #84181F)"/>
</g>
</svg>
