<svg preserveAspectRatio="none" width="100%" height="100%" overflow="visible" style="display: block;" viewBox="0 0 16.3187 16.3187" fill="none" xmlns="http://www.w3.org/2000/svg">
<g id="Frame 1000002898">
<circle id="Ellipse 4" cx="8.15934" cy="8.15934" r="8.15934" fill="var(--fill-0, #84181F)"/>
<g id="LinkedIn">
<path id="Vector" d="M5.78146 6.58984H3.96973V12.3673H5.78146V6.58984Z" fill="var(--fill-0, white)"/>
<path id="Vector_2" d="M10.6821 6.4642C10.6153 6.45585 10.5444 6.45168 10.4734 6.4475C9.45901 6.40576 8.88711 7.00689 8.68673 7.2657C8.63246 7.33667 8.60742 7.37842 8.60742 7.37842V6.60613H6.875V12.3836H8.60742H8.68673C8.68673 11.795 8.68673 11.2106 8.68673 10.622C8.68673 10.3047 8.68673 9.98748 8.68673 9.67021C8.68673 9.27781 8.65751 8.86036 8.85371 8.50136C9.02069 8.20079 9.32125 8.05051 9.65939 8.05051C10.6613 8.05051 10.6821 8.95638 10.6821 9.03987C10.6821 9.04404 10.6821 9.04821 10.6821 9.04821V12.4087H12.4939V8.63911C12.4939 7.34919 11.8385 6.58944 10.6821 6.4642Z" fill="var(--fill-0, white)"/>
<path id="Vector_3" d="M4.87527 5.84223C5.45626 5.84223 5.92725 5.37124 5.92725 4.79025C5.92725 4.20927 5.45626 3.73828 4.87527 3.73828C4.29428 3.73828 3.8233 4.20927 3.8233 4.79025C3.8233 5.37124 4.29428 5.84223 4.87527 5.84223Z" fill="var(--fill-0, white)"/>
</g>
</g>
</svg>
