<svg preserveAspectRatio="none" width="100%" height="100%" overflow="visible" style="display: block;" viewBox="0 0 73.002 20.2201" fill="none" xmlns="http://www.w3.org/2000/svg">
<g id="logo">
<path id="Vector" d="M23.5996 16.7448V0.638458C23.7003 0.638458 23.7899 0.638458 23.8806 0.638458C25.4667 0.638458 27.0528 0.633433 28.639 0.640466C29.7427 0.645489 30.8283 0.768056 31.8445 1.23823C33.3752 1.9465 34.1627 3.16713 34.2604 4.82881C34.337 6.13082 33.9925 7.29419 33.0036 8.21042C32.9543 8.25664 32.9029 8.29984 32.8515 8.34304C32.8002 8.38624 32.7488 8.42843 32.6773 8.4877C32.8515 8.62132 33.0217 8.73987 33.1778 8.87349C34.4155 9.93338 34.767 11.3007 34.5545 12.8579C34.2826 14.8601 32.8868 16.0386 31.0992 16.4927C30.35 16.6835 29.5896 16.7468 28.8192 16.7458C27.1737 16.7438 25.5292 16.7458 23.8836 16.7458H23.6006L23.5996 16.7448ZM26.8323 13.7098C27.4224 13.7098 27.9874 13.7239 28.5504 13.7058C28.9955 13.6917 29.4446 13.6716 29.8817 13.5943C30.7679 13.4386 31.3349 12.8087 31.3983 11.9758C31.4648 11.1028 31.0167 10.4257 30.1526 10.1202C29.9482 10.0479 29.7296 9.9806 29.5151 9.97356C28.64 9.94543 27.7628 9.94041 26.8877 9.92836C26.8736 9.92836 26.8595 9.94343 26.8323 9.9595V13.7098ZM26.8343 7.20779C27.6148 7.20779 28.3802 7.22688 29.1435 7.19775C29.4396 7.1867 29.7417 7.09527 30.0237 6.9928C30.8606 6.68739 31.2765 5.85655 31.0499 4.99457C30.8304 4.16373 30.1949 3.80608 29.4295 3.72973C28.5856 3.64534 27.7296 3.68553 26.8786 3.67347C26.8655 3.67347 26.8524 3.69256 26.8353 3.70562V7.20779H26.8343Z" fill="var(--fill-0, #792323)"/>
<path id="Vector_2" d="M51.8661 14.8312V16.5599H48.7765V16.2905C48.7765 11.1701 48.7775 6.04956 48.7715 0.929073C48.7715 0.700435 48.8317 0.633831 49.0656 0.636814C49.9479 0.650731 50.8312 0.641787 51.7135 0.642781C51.7958 0.642781 51.8781 0.649739 51.9906 0.654709V6.86769C52.0086 6.87366 52.0267 6.88061 52.0458 6.88658C52.1311 6.77027 52.2134 6.65198 52.3027 6.53865C52.9803 5.67878 53.8746 5.18571 54.9657 5.09724C56.905 4.94018 58.5602 5.53165 59.7637 7.09136C60.9391 8.61428 61.2774 10.3539 60.89 12.2188C60.5487 13.86 59.7085 15.1991 58.2079 16.0281C56.7293 16.8442 55.1675 16.9944 53.5795 16.3234C52.8608 16.0202 52.3429 15.4774 51.9394 14.8213C51.9143 14.8243 51.8902 14.8273 51.8651 14.8303L51.8661 14.8312ZM52.2174 10.8619C52.1983 12.5548 53.3918 13.7924 55.0591 13.8093C56.6631 13.8262 57.9138 12.5697 57.9309 10.9255C57.9479 9.27137 56.7263 8.00293 55.0952 7.98305C53.441 7.96316 52.2365 9.16798 52.2174 10.8619Z" fill="var(--fill-0, #792323)"/>
<path id="Vector_3" d="M62.4133 20.2129C62.7136 19.5624 62.9875 18.9688 63.2624 18.3752C63.8712 17.0619 64.483 15.7507 65.0826 14.4334C65.1264 14.3378 65.1183 14.1833 65.0714 14.0868C63.6604 11.1563 62.2423 8.23098 60.8252 5.3036C60.7956 5.24363 60.7722 5.18061 60.7305 5.08201C60.8333 5.0749 60.9127 5.06473 60.9921 5.06473C62.0152 5.06372 63.0394 5.06778 64.0625 5.06067C64.2407 5.05965 64.3323 5.11352 64.4117 5.27819C65.1977 6.91265 65.9938 8.54202 66.7868 10.1724C66.8225 10.2456 66.8642 10.3167 66.9243 10.4296C67.1737 9.89492 67.4038 9.40397 67.6318 8.91201C68.1867 7.71463 68.7445 6.51928 69.2912 5.31783C69.3768 5.12877 69.4786 5.0566 69.6923 5.05864C70.6992 5.07083 71.705 5.06372 72.7119 5.06473C72.7943 5.06473 72.8768 5.07185 73.002 5.07795C72.7526 5.61768 72.5195 6.12388 72.2853 6.63007C70.2258 11.072 68.1653 15.5128 66.1109 19.9558C66.0253 20.1397 65.9317 20.2231 65.7138 20.22C64.7161 20.2068 63.7184 20.2139 62.7197 20.2139C62.6373 20.2139 62.5538 20.2139 62.4153 20.2139L62.4133 20.2129Z" fill="var(--fill-0, #792323)"/>
<path id="Vector_4" d="M42.793 16.7458V0.636719H46.2542V16.7458H42.793Z" fill="var(--fill-0, #792323)"/>
<path id="Vector_5" d="M40.2602 16.7446H36.8174V5.07802C36.8965 5.07291 36.9745 5.0627 37.0535 5.0627C38.0329 5.06168 39.0133 5.06576 39.9926 5.05862C40.1919 5.0576 40.2786 5.09027 40.2786 5.30878C40.271 9.04584 40.2732 12.7829 40.2732 16.52C40.2732 16.5873 40.2656 16.6537 40.2602 16.7456V16.7446Z" fill="var(--fill-0, #792323)"/>
<path id="Vector_6" d="M38.5144 3.79027C37.3506 3.78023 36.4914 2.95774 36.5001 1.86209C36.5076 0.790538 37.4092 -0.0138782 38.5859 0.000181488C39.729 0.0132369 40.6013 0.846774 40.5904 1.91632C40.5796 2.99088 39.6824 3.80132 38.5144 3.79027Z" fill="var(--fill-0, #792323)"/>
<path id="Vector_7" d="M6.05446 13.5872C5.58606 13.5872 5.12976 13.5591 4.69159 13.501C2.44834 13.2076 0.874952 12.1939 0.26151 10.6442C-0.936162 7.61915 2.08673 3.69755 7.14535 1.71622C12.204 -0.265114 17.1045 0.553263 18.3031 3.57835C19.5008 6.60344 16.4779 10.525 11.4193 12.5064C9.60718 13.2156 7.74872 13.5862 6.05546 13.5862L6.05446 13.5872ZM12.6039 2.70488C11.1141 2.70488 9.41176 3.03744 7.90183 3.62844C4.54452 4.94365 1.36953 7.83952 2.18343 9.89198C2.50475 10.7023 3.51708 11.2763 4.96053 11.4646C6.64473 11.685 8.66838 11.3765 10.6618 10.5962C14.0191 9.28095 17.1941 6.38508 16.3802 4.33262C15.933 3.20272 14.4271 2.70488 12.6039 2.70488Z" fill="var(--fill-0, #84181F)"/>
<path id="Vector_8" d="M10.3531 17.3755C10.1001 17.3755 9.84717 17.3705 9.5952 17.3615C7.19698 17.2726 4.94317 16.7994 3.24908 16.0267C1.31098 15.1432 0.270223 13.9283 0.319024 12.6055C0.367825 11.2827 1.49423 10.1476 3.49208 9.40983C5.23797 8.76491 7.51966 8.45742 9.91888 8.54627C12.3171 8.63512 14.5709 9.10833 16.265 9.88104C18.2031 10.7646 19.2439 11.9795 19.1951 13.3023C19.0955 16.0068 14.6974 17.3755 10.3531 17.3755ZM9.1032 10.2953C7.21291 10.2953 5.45906 10.5629 4.1016 11.0651C2.87361 11.5193 2.09777 12.1343 2.07785 12.6704C2.05793 13.2065 2.78596 13.8773 3.9781 14.4204C5.46803 15.0993 7.4858 15.5176 9.65993 15.5985C14.3478 15.7692 17.3974 14.3156 17.4362 13.2374C17.4561 12.7003 16.7281 12.0304 15.536 11.4873C14.046 10.8085 12.0283 10.3902 9.85414 10.3093C9.60217 10.3003 9.35119 10.2953 9.1032 10.2953Z" fill="var(--fill-0, #84181F)"/>
</g>
</svg>
