<svg preserveAspectRatio="none" width="100%" height="100%" overflow="visible" style="display: block;" viewBox="0 0 28 28" fill="none" xmlns="http://www.w3.org/2000/svg">
<g id="Ibm Z Os Ai Control Interface Streamline Carbon" clip-path="url(#clip0_0_34)">
<path id="Vector" d="M9.625 18.375C9.625 18.6071 9.71719 18.8296 9.88128 18.9937C10.0454 19.1578 10.2679 19.25 10.5 19.25C10.7321 19.25 10.9546 19.1578 11.1187 18.9937C11.2828 18.8296 11.375 18.6071 11.375 18.375C11.375 18.1429 11.2828 17.9204 11.1187 17.7563C10.9546 17.5922 10.7321 17.5 10.5 17.5C10.2679 17.5 10.0454 17.5922 9.88128 17.7563C9.71719 17.9204 9.625 18.1429 9.625 18.375Z" fill="var(--fill-0, white)"/>
<path id="Vector_2" d="M20.125 21.875H7.875C6.91005 21.875 6.125 21.09 6.125 20.125V16.625C6.125 15.66 6.91005 14.875 7.875 14.875H20.125C21.09 14.875 21.875 15.66 21.875 16.625V20.125C21.875 21.09 21.09 21.875 20.125 21.875ZM7.875 16.625V20.125H20.125V16.625H7.875Z" fill="var(--fill-0, white)"/>
<path id="Vector_3" d="M9.625 9.625C9.625 9.85706 9.71719 10.0796 9.88128 10.2437C10.0454 10.4078 10.2679 10.5 10.5 10.5C10.7321 10.5 10.9546 10.4078 11.1187 10.2437C11.2828 10.0796 11.375 9.85706 11.375 9.625C11.375 9.39294 11.2828 9.17038 11.1187 9.00628C10.9546 8.84219 10.7321 8.75 10.5 8.75C10.2679 8.75 10.0454 8.84219 9.88128 9.00628C9.71719 9.17038 9.625 9.39294 9.625 9.625Z" fill="var(--fill-0, white)"/>
<path id="Vector_4" d="M20.125 13.125H7.875C6.91005 13.125 6.125 12.34 6.125 11.375V7.875C6.125 6.91005 6.91005 6.125 7.875 6.125H20.125C21.09 6.125 21.875 6.91005 21.875 7.875V11.375C21.875 12.34 21.09 13.125 20.125 13.125ZM7.875 7.875V11.375H20.125V7.875H7.875Z" fill="var(--fill-0, white)"/>
<path id="Vector_5" d="M24.5 26.25H3.5C2.53487 26.25 1.75 25.4651 1.75 24.5V14H3.5V24.5H24.5V3.5H14V1.75H24.5C25.4651 1.75 26.25 2.53487 26.25 3.5V24.5C26.25 25.4651 25.4651 26.25 24.5 26.25Z" fill="var(--fill-0, white)"/>
<path id="Vector_6" d="M10.5 0V4.375H8.75V0L10.5 0Z" fill="var(--fill-0, white)"/>
<path id="Vector_7" d="M2.98755 1.74999L6.08114 4.84358L4.8437 6.08102L1.75011 2.98742L2.98755 1.74999Z" fill="var(--fill-0, white)"/>
<path id="Vector_8" d="M0 8.75H4.375V10.5H0V8.75Z" fill="var(--fill-0, white)"/>
<g id="_Transparent_Rectangle_">
</g>
</g>
<defs>
<clipPath id="clip0_0_34">
<rect width="28" height="28" fill="white"/>
</clipPath>
</defs>
</svg>
