<svg preserveAspectRatio="none" width="100%" height="100%" overflow="visible" style="display: block;" viewBox="0 0 1441.98 98" fill="none" xmlns="http://www.w3.org/2000/svg">
<path id="Vector" d="M0.491064 33V98M19.7044 33V98M38.9177 33V98M58.1311 33V98M77.3444 33V98M96.5577 33V98M115.771 33V98M134.984 33V98M154.198 33V98M173.411 33V98M192.624 20V98M211.838 20V98M231.051 20V98M250.264 20V98M269.478 20V98M288.691 33V98M307.904 33V98M327.118 33V98M346.331 33V98M365.544 23.5V98M384.758 23.5V98M403.971 10.5V98M423.184 10.5V98M442.398 10.5V98M461.611 20V98M480.824 20V98M500.038 30.5V98M519.251 30.5V98M538.464 30.5V98M557.678 23.5V98M576.891 23.5V98M596.104 23.5V98M615.318 23.5V98M634.531 23.5V98M653.744 23.5V98M672.958 13V98M692.171 13V98M711.384 13V98M730.598 13V98M749.811 13V98M769.024 23.5V98M788.238 23.5V98M807.451 23.5V98M826.664 23.5V98M845.878 23.5V98M865.091 13V98M884.304 13V98M903.518 0V98M922.731 0V98M941.944 0V98M961.158 10.5V98M980.371 10.5V98M999.584 10.5V98M1018.8 10.5V98M1038.01 10.5V98M1057.22 20V98M1076.44 20V98M1095.65 20V98M1114.86 20V98M1134.08 20V98M1153.29 20V98M1172.5 20V98M1191.72 20V98M1210.93 33V98M1230.14 33V98M1249.36 33V98M1268.57 33V98M1287.78 33V98M1307 33V98M1326.21 33V98M1345.42 33V98M1364.64 33V98M1383.85 33V98M1403.06 33V98M1422.28 33V98M1441.49 33V98" stroke="var(--stroke-0, #E3DFDF)" stroke-width="0.982128"/>
</svg>
