<svg preserveAspectRatio="none" width="100%" height="100%" overflow="visible" style="display: block;" viewBox="0 0 21 21" fill="none" xmlns="http://www.w3.org/2000/svg">
<g id="Money Streamline Carbon" clip-path="url(#clip0_0_32)">
<path id="Vector" d="M1.3125 14.4375H19.6875V15.75H1.3125V14.4375Z" fill="var(--fill-0, #84181F)"/>
<path id="Vector_2" d="M1.3125 17.0625H19.6875V18.375H1.3125V17.0625Z" fill="var(--fill-0, #84181F)"/>
<path id="Vector_3" d="M15.75 6.5625C15.4904 6.5625 15.2367 6.63948 15.0208 6.7837C14.805 6.92792 14.6367 7.1329 14.5374 7.37273C14.4381 7.61256 14.4121 7.87646 14.4627 8.13106C14.5134 8.38566 14.6384 8.61952 14.8219 8.80308C15.0055 8.98663 15.2393 9.11164 15.4939 9.16228C15.7485 9.21292 16.0124 9.18693 16.2523 9.08759C16.4921 8.98825 16.6971 8.82003 16.8413 8.60419C16.9855 8.38835 17.0625 8.13459 17.0625 7.875C17.0625 7.5269 16.9242 7.19306 16.6781 6.94692C16.4319 6.70078 16.0981 6.5625 15.75 6.5625Z" fill="var(--fill-0, #84181F)"/>
<path id="Vector_4" d="M10.5 10.5C9.98082 10.5 9.47331 10.346 9.04163 10.0576C8.60995 9.76917 8.2735 9.3592 8.07482 8.87954C7.87614 8.39989 7.82415 7.87209 7.92544 7.36289C8.02672 6.85369 8.27673 6.38596 8.64384 6.01884C9.01096 5.65173 9.47869 5.40172 9.98789 5.30044C10.4971 5.19915 11.0249 5.25114 11.5045 5.44982C11.9842 5.6485 12.3942 5.98495 12.6826 6.41663C12.971 6.84831 13.125 7.35582 13.125 7.875C13.1242 8.57095 12.8474 9.23818 12.3553 9.73029C11.8632 10.2224 11.196 10.4992 10.5 10.5ZM10.5 6.5625C10.2404 6.5625 9.98665 6.63948 9.77081 6.7837C9.55497 6.92792 9.38675 7.1329 9.28741 7.37273C9.18807 7.61256 9.16208 7.87646 9.21272 8.13106C9.26336 8.38566 9.38837 8.61952 9.57192 8.80308C9.75548 8.98663 9.98934 9.11164 10.2439 9.16228C10.4985 9.21292 10.7624 9.18693 11.0023 9.08759C11.2421 8.98825 11.4471 8.82003 11.5913 8.60419C11.7355 8.38835 11.8125 8.13459 11.8125 7.875C11.8122 7.52701 11.6738 7.19337 11.4277 6.94731C11.1816 6.70124 10.848 6.56285 10.5 6.5625Z" fill="var(--fill-0, #84181F)"/>
<path id="Vector_5" d="M5.25 6.5625C4.99041 6.5625 4.73665 6.63948 4.52081 6.7837C4.30497 6.92792 4.13675 7.1329 4.03741 7.37273C3.93807 7.61256 3.91208 7.87646 3.96272 8.13106C4.01336 8.38566 4.13837 8.61952 4.32192 8.80308C4.50548 8.98663 4.73934 9.11164 4.99394 9.16228C5.24854 9.21292 5.51244 9.18693 5.75227 9.08759C5.9921 8.98825 6.19708 8.82003 6.3413 8.60419C6.48552 8.38835 6.5625 8.13459 6.5625 7.875C6.5625 7.5269 6.42422 7.19306 6.17808 6.94692C5.93194 6.70078 5.5981 6.5625 5.25 6.5625Z" fill="var(--fill-0, #84181F)"/>
<path id="Vector_6" d="M18.375 13.125H2.625C2.27717 13.1241 1.94385 12.9856 1.6979 12.7396C1.45195 12.4937 1.31338 12.1603 1.3125 11.8125V3.9375C1.31338 3.58967 1.45195 3.25635 1.6979 3.0104C1.94385 2.76445 2.27717 2.62588 2.625 2.625H18.375C18.7228 2.62588 19.0562 2.76445 19.3021 3.0104C19.5481 3.25635 19.6866 3.58967 19.6875 3.9375V11.8125C19.687 12.1605 19.5486 12.494 19.3026 12.7401C19.0565 12.9861 18.723 13.1245 18.375 13.125ZM18.375 3.9375H2.625V11.8125H18.375V3.9375Z" fill="var(--fill-0, #84181F)"/>
<g id="_Transparent_Rectangle_">
</g>
</g>
<defs>
<clipPath id="clip0_0_32">
<rect width="21" height="21" fill="white"/>
</clipPath>
</defs>
</svg>
