<svg preserveAspectRatio="none" width="100%" height="100%" overflow="visible" style="display: block;" viewBox="0 0 24.5 24.5" fill="none" xmlns="http://www.w3.org/2000/svg">
<g id="Vector" style="mix-blend-mode:multiply">
<path d="M24.4547 14.866L22.1859 5.0778C22.1252 4.81568 22.0049 4.57108 21.8343 4.36301C21.6637 4.15494 21.4475 3.989 21.2024 3.87809L12.9712 0.155488C12.742 0.051625 12.4959 0 12.2501 0C12.0042 0 11.7581 0.0517125 11.5289 0.155488L3.29759 3.87809C3.05247 3.989 2.83621 4.15494 2.66564 4.36301C2.49507 4.57108 2.37477 4.81568 2.31409 5.0778L0.0452173 14.866C-0.0146674 15.1243 -0.0150749 15.3929 0.0440257 15.6515C0.103126 15.91 0.22019 16.1517 0.38638 16.3584L6.41163 23.8472C6.57564 24.051 6.78325 24.2154 7.01918 24.3284C7.25512 24.4413 7.51338 24.5 7.77497 24.5H16.725C16.9866 24.5 17.2448 24.4413 17.4808 24.3284C17.7167 24.2154 17.9243 24.051 18.0883 23.8472L24.1136 16.3584C24.2798 16.1517 24.3968 15.91 24.4559 15.6515C24.515 15.3929 24.5146 15.1243 24.4547 14.866ZM16.725 22.75H7.77523L1.74998 15.2612L4.01886 5.4726L12.25 1.75L20.4811 5.47304L22.75 15.2612L16.725 22.75Z" fill="var(--fill-0, #84181F)"/>
</g>
</svg>
