<svg preserveAspectRatio="none" width="100%" height="100%" overflow="visible" style="display: block;" viewBox="0 0 17.79 17.79" fill="none" xmlns="http://www.w3.org/2000/svg">
<g id="dots.svg" clip-path="url(#clip0_0_60)">
<path id="Vector" d="M16.6795 2.43008e-08C17.2936 5.11427e-08 17.7914 0.497804 17.7914 1.11188V1.66781C17.7914 2.28189 17.2936 2.77969 16.6795 2.77969H16.1236C15.5095 2.77969 15.0117 2.28189 15.0117 1.66781V1.11188C15.0117 0.497804 15.5095 -2.68417e-08 16.1236 0L16.6795 2.43008e-08Z" fill="var(--fill-0, #D8BFC0)"/>
<path id="Vector_2" d="M11.6756 2.43004e-08C12.2897 5.11425e-08 12.7875 0.497804 12.7875 1.11188V1.66781C12.7875 2.28189 12.2897 2.77969 11.6756 2.77969H11.1197C10.5056 2.77969 10.0078 2.28189 10.0078 1.66781V1.11188C10.0078 0.497803 10.5056 -2.68421e-08 11.1197 0L11.6756 2.43004e-08Z" fill="var(--fill-0, #D8BFC0)"/>
<path id="Vector_3" d="M6.67172 2.43004e-08C7.28579 5.11426e-08 7.78359 0.497803 7.78359 1.11188V1.66781C7.78359 2.28189 7.28579 2.77969 6.67172 2.77969H6.11578C5.50171 2.77969 5.00391 2.28189 5.00391 1.66781V1.11188C5.00391 0.497803 5.50171 -2.68421e-08 6.11578 0L6.67172 2.43004e-08Z" fill="var(--fill-0, #D8BFC0)"/>
<path id="Vector_4" d="M1.66781 2.43004e-08C2.28189 5.11425e-08 2.77969 0.497803 2.77969 1.11188V1.66781C2.77969 2.28189 2.28189 2.77969 1.66781 2.77969H1.11188C0.497804 2.77969 -2.68417e-08 2.28189 0 1.66781L2.43008e-08 1.11188C5.11427e-08 0.497803 0.497804 -2.68436e-08 1.11188 0L1.66781 2.43004e-08Z" fill="var(--fill-0, #D8BFC0)"/>
<path id="Vector_5" d="M16.6795 5.00391C17.2936 5.00391 17.7914 5.50171 17.7914 6.11578V6.67172C17.7914 7.28579 17.2936 7.78359 16.6795 7.78359H16.1236C15.5095 7.78359 15.0117 7.28579 15.0117 6.67172V6.11578C15.0117 5.50171 15.5095 5.00391 16.1236 5.00391H16.6795Z" fill="var(--fill-0, #D8BFC0)"/>
<path id="Vector_6" d="M11.6756 5.00391C12.2897 5.00391 12.7875 5.50171 12.7875 6.11578V6.67172C12.7875 7.28579 12.2897 7.78359 11.6756 7.78359H11.1197C10.5056 7.78359 10.0078 7.28579 10.0078 6.67172V6.11578C10.0078 5.50171 10.5056 5.00391 11.1197 5.00391H11.6756Z" fill="var(--fill-0, #D8BFC0)"/>
<path id="Vector_7" d="M16.6795 10.0068C17.2936 10.0068 17.7914 10.5047 17.7914 11.1187V11.6746C17.7914 12.2887 17.2936 12.7865 16.6795 12.7865H16.1236C15.5095 12.7865 15.0117 12.2887 15.0117 11.6746V11.1187C15.0117 10.5047 15.5095 10.0068 16.1236 10.0068H16.6795Z" fill="var(--fill-0, #D8BFC0)"/>
<path id="Vector_8" d="M16.6795 15.0107C17.2936 15.0107 17.7914 15.5086 17.7914 16.1226V16.6786C17.7914 17.2926 17.2936 17.7904 16.6795 17.7904H16.1236C15.5095 17.7904 15.0117 17.2926 15.0117 16.6786V16.1226C15.0117 15.5086 15.5095 15.0107 16.1236 15.0107H16.6795Z" fill="var(--fill-0, #D8BFC0)"/>
</g>
<defs>
<clipPath id="clip0_0_60">
<rect width="17.79" height="17.79" fill="white"/>
</clipPath>
</defs>
</svg>
