<svg preserveAspectRatio="none" width="100%" height="100%" overflow="visible" style="display: block;" viewBox="0 0 720 300" fill="none" xmlns="http://www.w3.org/2000/svg">
<g id="Frame 1000003106">
<g id="Vector">
<path d="M0 248.922V14.2871C1.46708 14.2871 2.77279 14.2871 4.09316 14.2871C27.1996 14.2871 50.3061 14.2139 73.4126 14.3164C89.4918 14.3895 105.307 16.1751 120.11 23.0245C142.409 33.3424 153.882 51.1244 155.305 75.3314C156.42 94.2989 151.403 111.247 136.996 124.594C136.277 125.267 135.529 125.897 134.781 126.526C134.032 127.155 133.284 127.77 132.242 128.634C134.781 130.58 137.26 132.307 139.534 134.254C157.564 149.694 162.684 169.613 159.589 192.298C155.628 221.466 135.294 238.633 109.253 245.248C98.3383 248.029 87.2619 248.951 76.0387 248.937C52.0666 248.907 28.1092 248.937 4.13717 248.937H0.0146851L0 248.922ZM47.0932 204.708C55.6903 204.708 63.9206 204.913 72.1216 204.65C78.6061 204.445 85.1492 204.152 91.5164 203.025C104.427 200.757 112.686 191.58 113.611 179.448C114.579 166.73 108.05 156.865 95.4628 152.416C92.4846 151.362 89.3011 150.382 86.1762 150.279C73.4273 149.87 60.6491 149.796 47.9002 149.621C47.6948 149.621 47.4893 149.84 47.0932 150.074V204.708ZM47.1226 109.988C58.4925 109.988 69.6422 110.266 80.7627 109.842C85.0759 109.681 89.4771 108.349 93.5849 106.856C105.776 102.407 111.835 90.3034 108.534 77.7462C105.336 65.6427 96.079 60.4325 84.9292 59.3202C72.6351 58.0909 60.1649 58.6763 47.7681 58.5007C47.5774 58.5007 47.3866 58.7788 47.1372 58.969V109.988H47.1226Z" fill="var(--fill-0, #84181F)"/>
<path d="M411.775 221.045V246.228H366.767V242.304C366.767 167.71 366.781 93.1152 366.694 18.5207C366.694 15.19 367.571 14.2197 370.978 14.2632C383.831 14.4659 396.699 14.3356 409.553 14.3501C410.752 14.3501 411.951 14.4515 413.588 14.5239V105.033C413.852 105.12 414.115 105.222 414.393 105.309C415.636 103.614 416.835 101.891 418.136 100.24C428.006 87.7136 441.035 80.5307 456.93 79.2419C485.181 76.9538 509.294 85.5703 526.827 108.292C543.95 130.478 548.878 155.82 543.233 182.988C538.262 206.897 526.022 226.403 504.161 238.481C482.622 250.37 459.869 252.557 436.736 242.782C426.266 238.365 418.721 230.458 412.843 220.9C412.477 220.944 412.126 220.987 411.761 221.031L411.775 221.045ZM416.893 163.22C416.615 187.882 434.002 205.912 458.29 206.158C481.657 206.404 499.877 188.1 500.126 164.147C500.374 140.05 482.578 121.571 458.817 121.282C434.718 120.992 417.171 138.544 416.893 163.22Z" fill="var(--fill-0, #84181F)"/>
<path d="M565.745 299.683C570.12 290.206 574.11 281.558 578.114 272.911C586.983 253.779 595.896 234.678 604.632 215.487C605.269 214.095 605.151 211.845 604.468 210.438C583.913 167.748 563.254 125.132 542.61 82.4863C542.179 81.6126 541.838 80.6946 541.23 79.2582C542.728 79.1546 543.885 79.0065 545.042 79.0065C559.947 78.9917 574.866 79.0509 589.771 78.9472C592.367 78.9324 593.701 79.7173 594.858 82.1161C606.308 105.927 617.905 129.663 629.458 153.414C629.977 154.48 630.585 155.517 631.46 157.161C635.094 149.372 638.446 142.22 641.768 135.053C649.851 117.61 657.978 100.196 665.942 82.6935C667.188 79.9393 668.671 78.888 671.785 78.9176C686.453 79.0953 701.106 78.9917 715.773 79.0065C716.974 79.0065 718.176 79.1101 720 79.199C716.366 87.0618 712.97 94.4359 709.559 101.81C679.557 166.519 649.539 231.213 619.611 295.936C618.365 298.617 617 299.831 613.827 299.786C599.293 299.594 584.758 299.698 570.209 299.698C569.008 299.698 567.792 299.698 565.775 299.698L565.745 299.683Z" fill="var(--fill-0, #84181F)"/>
<path d="M279.602 248.937V14.2618H330.024V248.937H279.602Z" fill="var(--fill-0, #84181F)"/>
<path d="M242.707 248.924H192.553V78.9678C193.705 78.8935 194.841 78.7447 195.993 78.7447C210.26 78.7298 224.542 78.7893 238.809 78.6852C241.713 78.6703 242.975 79.1463 242.975 82.3295C242.865 136.77 242.896 191.211 242.896 245.652C242.896 246.634 242.786 247.601 242.707 248.939V248.924Z" fill="var(--fill-0, #84181F)"/>
<path d="M217.276 60.2166C200.323 60.0703 187.805 48.0884 187.932 32.1271C188.042 16.517 201.175 4.79841 218.317 5.00323C234.97 5.19342 247.677 17.3363 247.519 32.9171C247.361 48.5712 234.292 60.3775 217.276 60.2166Z" fill="var(--fill-0, #84181F)"/>
</g>
</g>
</svg>
