<svg preserveAspectRatio="none" width="100%" height="100%" overflow="visible" style="display: block;" viewBox="0 0 25 25" fill="none" xmlns="http://www.w3.org/2000/svg">
<g id="SVG">
<path id="Vector" d="M23.5028 6.56986C23.241 5.58445 22.47 4.80836 21.4909 4.54499C19.7163 4.06641 12.6005 4.06641 12.6005 4.06641C12.6005 4.06641 5.48462 4.06641 3.71 4.54499C2.73096 4.80841 1.95987 5.58445 1.69816 6.56986C1.22266 8.35599 1.22266 12.0826 1.22266 12.0826C1.22266 12.0826 1.22266 15.8091 1.69816 17.5953C1.95987 18.5807 2.73096 19.3244 3.71 19.5878C5.48462 20.0664 12.6005 20.0664 12.6005 20.0664C12.6005 20.0664 19.7163 20.0664 21.4909 19.5878C22.47 19.3244 23.241 18.5807 23.5028 17.5953C23.9783 15.8091 23.9783 12.0826 23.9783 12.0826C23.9783 12.0826 23.9783 8.35599 23.5028 6.56986ZM10.2732 15.466V8.69911L16.2206 12.0826L10.2732 15.466Z" fill="var(--fill-0, #792323)"/>
</g>
</svg>
