<svg preserveAspectRatio="none" width="100%" height="100%" overflow="visible" style="display: block;" viewBox="0 0 21 21" fill="none" xmlns="http://www.w3.org/2000/svg">
<g id="Kubernetes Ip Address Streamline Carbon" clip-path="url(#clip0_0_27)">
<path id="Vector" d="M9.1875 5.90625C9.1875 6.25435 9.32578 6.58819 9.57192 6.83433C9.81806 7.08047 10.1519 7.21875 10.5 7.21875C10.8481 7.21875 11.1819 7.08047 11.4281 6.83433C11.6742 6.58819 11.8125 6.25435 11.8125 5.90625C11.8125 5.55815 11.6742 5.22431 11.4281 4.97817C11.1819 4.73203 10.8481 4.59375 10.5 4.59375C10.1519 4.59375 9.81806 4.73203 9.57192 4.97817C9.32578 5.22431 9.1875 5.55815 9.1875 5.90625Z" fill="var(--fill-0, #84181F)"/>
<path id="Vector_2" d="M9.1875 10.5C9.1875 10.8481 9.32578 11.1819 9.57192 11.4281C9.81806 11.6742 10.1519 11.8125 10.5 11.8125C10.8481 11.8125 11.1819 11.6742 11.4281 11.4281C11.6742 11.1819 11.8125 10.8481 11.8125 10.5C11.8125 10.1519 11.6742 9.81806 11.4281 9.57192C11.1819 9.32578 10.8481 9.1875 10.5 9.1875C10.1519 9.1875 9.81806 9.32578 9.57192 9.57192C9.32578 9.81806 9.1875 10.1519 9.1875 10.5Z" fill="var(--fill-0, #84181F)"/>
<path id="Vector_3" d="M12.3478 17.0625C12.1496 16.5065 11.7122 16.0691 11.1562 15.8708V14.4375H13.125C13.3198 14.4375 13.5044 14.351 13.6292 14.2013L16.9104 10.2638C17.0405 10.1078 17.091 9.89979 17.0468 9.70148L15.7343 3.79522C15.6886 3.58883 15.5464 3.41742 15.3522 3.33447L10.7584 1.36572C10.6759 1.33015 10.5879 1.3125 10.5 1.3125C10.4121 1.3125 10.3241 1.33015 10.2416 1.36572L5.64683 3.33447C5.45265 3.41749 5.31038 3.5889 5.26457 3.79522L3.95305 9.70148C3.90902 9.90012 3.95948 10.1078 4.08955 10.2638L7.3708 14.2013C7.49562 14.3509 7.68016 14.4375 7.875 14.4375H9.84375V15.8711C9.28777 16.0692 8.85038 16.5066 8.6522 17.0625H2.625V18.375H8.6522C8.92395 19.137 9.64556 19.6875 10.5 19.6875C11.3544 19.6875 12.076 19.137 12.3478 18.375H18.375V17.0625H12.3478ZM5.30434 9.67135L6.47299 4.40823L10.5001 2.68268L14.5262 4.40823L15.6957 9.67135L12.8177 13.125H8.18232L5.30434 9.67135ZM10.5 18.375C10.1381 18.375 9.84375 18.0805 9.84375 17.7188C9.84375 17.357 10.1381 17.0625 10.5 17.0625C10.8619 17.0625 11.1562 17.357 11.1562 17.7188C11.1562 18.0805 10.8619 18.375 10.5 18.375Z" fill="var(--fill-0, #84181F)"/>
<g id="_Transparent_Rectangle_">
</g>
</g>
<defs>
<clipPath id="clip0_0_27">
<rect width="21" height="21" fill="white"/>
</clipPath>
</defs>
</svg>
