<svg preserveAspectRatio="none" width="100%" height="100%" overflow="visible" style="display: block;" viewBox="0 0 46 46" fill="none" xmlns="http://www.w3.org/2000/svg">
<g id="svg2" clip-path="url(#clip0_0_95)">
<path id="Vector" d="M0 0V46H46V0H0ZM21.6642 11.1103C20.9321 8.78825 20.1362 8.05607 16.0723 8.05607H12.9237C11.9797 8.05607 11.7658 8.26996 11.7658 9.12555V15.6967H13.3165C16.5556 15.6967 17.259 15.1126 17.6559 12.9428H18.4498V20.2769H17.6559C17.2281 17.8315 16.0065 17.2227 13.3165 17.2227H11.7658V24.0037C11.7658 26.1755 12.3458 26.4182 14.8199 26.5108V27.3047H4.98314V26.5108C7.02946 26.4182 7.60942 26.1776 7.60942 24.0037V9.83099C7.60942 7.65912 7.02946 7.41438 5.04279 7.32388V6.53H22.3964L22.5198 11.1123H21.6642V11.1103ZM41.4282 11.1144C40.7618 8.87052 39.7808 8.05812 37.5885 8.05812H35.0239V24.0078C35.0239 26.1796 35.6039 26.4223 37.9566 26.5149V27.3088H27.9348V26.5149C30.2876 26.4223 30.8675 26.1817 30.8675 24.0078V8.05607H28.3009C26.1086 8.05607 25.1296 8.86846 24.4612 11.1123H23.4165L23.8401 6.52794H42.0513L42.4729 11.1123H41.4302L41.4282 11.1144Z" fill="var(--fill-0, #792323)"/>
</g>
<defs>
<clipPath id="clip0_0_95">
<rect width="46" height="46" fill="white"/>
</clipPath>
</defs>
</svg>
