<svg preserveAspectRatio="none" width="100%" height="100%" overflow="visible" style="display: block;" viewBox="0 0 28 28" fill="none" xmlns="http://www.w3.org/2000/svg">
<g id="Gears Streamline Carbon" clip-path="url(#clip0_0_51)">
<path id="Vector" d="M24.5 19.2366C24.5 18.8345 24.4503 18.4445 24.3644 18.0681L26.25 17.3442L25.6229 15.7105L23.6924 16.4516C23.2961 15.8218 22.7735 15.2798 22.1552 14.8673L23.0035 12.9618L21.4048 12.25L20.5555 14.1576C20.1373 14.05 19.7014 13.9866 19.25 13.9866C18.7986 13.9866 18.3627 14.05 17.9445 14.1576L17.0952 12.25L15.4965 12.9618L16.3448 14.8673C15.7265 15.2798 15.2039 15.8218 14.8076 16.4516L12.8771 15.7105L12.25 17.3442L14.1356 18.0681C14.0496 18.4446 14 18.8345 14 19.2366C14 19.6213 14.0444 19.9954 14.1232 20.3568L12.25 21.1908L12.9618 22.7895L14.7818 21.9791C15.1686 22.6068 15.6795 23.1493 16.286 23.5658L15.4965 25.6228L17.1302 26.2499L17.8792 24.2987C18.3171 24.4175 18.7751 24.4865 19.25 24.4865C19.7249 24.4865 20.1829 24.4175 20.6208 24.2987L21.3698 26.2499L23.0035 25.6228L22.214 23.5658C22.8205 23.1493 23.3315 22.6068 23.7182 21.9791L25.5382 22.7895L26.25 21.1908L24.3768 20.3568C24.4556 19.9954 24.5 19.6213 24.5 19.2366ZM19.25 22.7366C17.3197 22.7366 15.75 21.1665 15.75 19.2366C15.75 17.3067 17.3197 15.7366 19.25 15.7366C21.1803 15.7366 22.75 17.3067 22.75 19.2366C22.75 21.1665 21.1803 22.7366 19.25 22.7366Z" fill="var(--fill-0, white)"/>
<path id="Vector_2" d="M11.7871 13.0246L13.0811 14.3185L14.3185 13.0811L13.0246 11.7872C13.4748 11.1553 13.7867 10.4208 13.921 9.62509H15.75V7.87509H13.921C13.7867 7.07936 13.4749 6.34489 13.0246 5.71296L14.3185 4.41901L13.0811 3.18159L11.7871 4.47554C11.1552 4.02526 10.4207 3.71341 9.625 3.5791V1.75009H7.875V3.5791C7.07928 3.71341 6.3448 4.02526 5.71287 4.47554L4.41892 3.18159L3.1815 4.41901L4.47545 5.71296C4.02518 6.34489 3.71332 7.07936 3.57901 7.87509H1.75V9.62509H3.57901C3.71332 10.4208 4.02509 11.1553 4.47545 11.7872L3.1815 13.0811L4.41892 14.3185L5.71287 13.0246C6.3448 13.4748 7.07928 13.7867 7.875 13.921V15.75H9.625V13.921C10.4207 13.7867 11.1552 13.4749 11.7871 13.0246ZM5.25 8.75C5.25 6.8201 6.81966 5.25 8.75 5.25C10.6803 5.25 12.25 6.8201 12.25 8.75C12.25 10.6799 10.6803 12.25 8.75 12.25C6.81966 12.25 5.25 10.6799 5.25 8.75Z" fill="var(--fill-0, white)"/>
<g id="_Transparent_Rectangle_">
</g>
</g>
<defs>
<clipPath id="clip0_0_51">
<rect width="28" height="28" fill="white"/>
</clipPath>
</defs>
</svg>
